<svg width="16" height="16" viewBox="0 0 16 16" fill="none" xmlns="http://www.w3.org/2000/svg">
<path d="M3.50001 5.66668C3.50001 5.39054 3.72387 5.16668 4.00001 5.16668H12C12.2762 5.16668 12.5 5.39054 12.5 5.66668C12.5 5.94282 12.2762 6.16668 12 6.16668H4.00001C3.72387 6.16668 3.50001 5.94282 3.50001 5.66668Z" fill="#3EAF3F"/>
<path d="M4.00001 3.50001C3.72387 3.50001 3.50001 3.72387 3.50001 4.00001C3.50001 4.27615 3.72387 4.50001 4.00001 4.50001H12C12.2762 4.50001 12.5 4.27615 12.5 4.00001C12.5 3.72387 12.2762 3.50001 12 3.50001H4.00001Z" fill="#3EAF3F"/>
<path fill-rule="evenodd" clip-rule="evenodd" d="M5.0166 0.833344H10.9834C11.7618 0.833334 12.3893 0.833326 12.8889 0.891209C13.4057 0.95109 13.8489 1.07853 14.2254 1.37877C14.3718 1.49548 14.5045 1.62826 14.6213 1.77462C14.9215 2.1511 15.0489 2.59428 15.1088 3.1111C15.1667 3.61068 15.1667 4.23823 15.1667 5.01657V5.07953C15.1667 6.1254 15.1667 6.95403 15.0906 7.61048C15.0126 8.28422 14.8488 8.84005 14.4758 9.30773C14.328 9.49311 14.1598 9.66131 13.9744 9.80914C13.5067 10.1821 12.9509 10.3459 12.2772 10.424C11.6207 10.5 10.7921 10.5 9.74625 10.5H6.25382C5.20796 10.5 4.37932 10.5 3.72287 10.424C3.04913 10.3459 2.4933 10.1821 2.02563 9.80914C1.84024 9.66131 1.67205 9.49311 1.52421 9.30773C1.15125 8.84005 0.987451 8.28422 0.90939 7.61048C0.833331 6.95403 0.833336 6.12543 0.833344 5.07955V5.0166C0.833334 4.23825 0.833326 3.61069 0.891209 3.1111C0.95109 2.59428 1.07853 2.1511 1.37877 1.77462C1.49548 1.62826 1.62826 1.49548 1.77462 1.37877C2.1511 1.07853 2.59428 0.95109 3.1111 0.891209C3.61068 0.833326 4.23825 0.833334 5.0166 0.833344ZM3.2262 1.88456C2.80153 1.93377 2.56878 2.0245 2.39811 2.1606C2.3103 2.23063 2.23063 2.3103 2.1606 2.39811C2.0245 2.56878 1.93377 2.80153 1.88456 3.2262C1.83413 3.66148 1.83334 4.23094 1.83334 5.04763C1.83334 6.13255 1.83413 6.90319 1.90274 7.49539C1.97013 8.07698 2.09722 8.42238 2.30604 8.68424C2.4072 8.81108 2.52227 8.92616 2.64912 9.02731C2.85681 9.19294 3.11706 9.30715 3.50603 9.38094C3.5162 9.10454 3.54573 8.858 3.63944 8.63176C3.82551 8.18254 4.18241 7.82564 4.63163 7.63957C4.82522 7.55938 5.02491 7.52828 5.23631 7.51386C5.43938 7.5 5.68674 7.50001 5.98305 7.50001L10.3821 7.5C10.6439 7.49986 10.8459 7.49976 11.0242 7.53524C11.7515 7.6799 12.32 8.24841 12.4647 8.97568C12.4886 9.09599 12.4963 9.22707 12.4988 9.38002C12.8851 9.30621 13.1441 9.19226 13.3509 9.02731C13.4777 8.92616 13.5928 8.81108 13.694 8.68424C13.9028 8.42238 14.0299 8.07698 14.0973 7.49539C14.1659 6.90319 14.1667 6.13255 14.1667 5.04763C14.1667 4.23094 14.1659 3.66148 14.1155 3.2262C14.0663 2.80153 13.9755 2.56878 13.8394 2.39811C13.7694 2.3103 13.6897 2.23063 13.6019 2.1606C13.4312 2.0245 13.1985 1.93377 12.7738 1.88456C12.3385 1.83413 11.7691 1.83334 10.9524 1.83334H5.04763C4.23094 1.83334 3.66148 1.83413 3.2262 1.88456ZM11.4994 9.47935C11.4983 9.29298 11.4945 9.2241 11.4839 9.17077C11.4181 8.84019 11.1597 8.58178 10.8291 8.51602C10.7608 8.50243 10.667 8.50001 10.3332 8.50001H5.99988C5.68241 8.50001 5.46935 8.50028 5.30438 8.51154C5.14389 8.52249 5.06575 8.54214 5.01431 8.56345C4.81012 8.64802 4.64789 8.81025 4.56332 9.01444C4.53133 9.09166 4.5115 9.20251 4.50383 9.47948C4.98619 9.49967 5.56699 9.50001 6.28573 9.50001H9.7143C10.4346 9.50001 11.0164 9.49966 11.4994 9.47935Z" fill="#3EAF3F"/>
<path d="M4.94392 11.2507C5.17368 11.4038 5.23577 11.7143 5.08259 11.944L4.87817 12.2507C4.76603 12.4189 4.80483 12.6454 4.96657 12.7667C5.55288 13.2064 5.69355 14.0276 5.28701 14.6374L5.08259 14.944C4.92942 15.1738 4.61898 15.2359 4.38922 15.0827C4.15945 14.9295 4.09736 14.6191 4.25054 14.3893L4.45496 14.0827C4.5671 13.9145 4.5283 13.688 4.36657 13.5667C3.78025 13.1269 3.63959 12.3058 4.04612 11.696L4.25054 11.3893C4.40372 11.1596 4.71415 11.0975 4.94392 11.2507Z" fill="#3EAF3F"/>
<path d="M8.27725 11.2507C8.50701 11.4038 8.5691 11.7143 8.41592 11.944L8.21151 12.2507C8.09937 12.4189 8.13817 12.6454 8.2999 12.7667C8.88622 13.2064 9.02688 14.0276 8.62034 14.6374L8.41592 14.944C8.26275 15.1738 7.95231 15.2359 7.72255 15.0827C7.49279 14.9295 7.4307 14.6191 7.58387 14.3893L7.78829 14.0827C7.90043 13.9145 7.86163 13.688 7.6999 13.5667C7.11358 13.1269 6.97292 12.3058 7.37946 11.696L7.58387 11.3893C7.73705 11.1596 8.04749 11.0975 8.27725 11.2507Z" fill="#3EAF3F"/>
<path d="M11.6106 11.2507C11.8403 11.4038 11.9024 11.7143 11.7493 11.944L11.5448 12.2507C11.4327 12.4189 11.4715 12.6454 11.6332 12.7667C12.2196 13.2064 12.3602 14.0276 11.9537 14.6374L11.7493 14.944C11.5961 15.1738 11.2856 15.2359 11.0559 15.0827C10.8261 14.9295 10.764 14.6191 10.9172 14.3893L11.1216 14.0827C11.2338 13.9145 11.195 13.688 11.0332 13.5667C10.4469 13.1269 10.3063 12.3058 10.7128 11.696L10.9172 11.3893C11.0704 11.1596 11.3808 11.0975 11.6106 11.2507Z" fill="#3EAF3F"/>
</svg>
