<svg width="16" height="16" viewBox="0 0 16 16" fill="none" xmlns="http://www.w3.org/2000/svg">
<path d="M3.50004 5.66666C3.50004 5.39052 3.7239 5.16666 4.00004 5.16666H12C12.2762 5.16666 12.5 5.39052 12.5 5.66666C12.5 5.94281 12.2762 6.16666 12 6.16666H4.00004C3.7239 6.16666 3.50004 5.94281 3.50004 5.66666Z" fill="#C59856"/>
<path d="M4.00004 3.5C3.7239 3.5 3.50004 3.72385 3.50004 4C3.50004 4.27614 3.7239 4.5 4.00004 4.5H12C12.2762 4.5 12.5 4.27614 12.5 4C12.5 3.72385 12.2762 3.5 12 3.5H4.00004Z" fill="#C59856"/>
<path fill-rule="evenodd" clip-rule="evenodd" d="M5.01663 0.833329H10.9835C11.7618 0.833319 12.3894 0.833311 12.8889 0.891194C13.4058 0.951075 13.8489 1.07851 14.2254 1.37875C14.3718 1.49547 14.5046 1.62825 14.6213 1.7746C14.9215 2.15109 15.049 2.59426 15.1088 3.11109C15.1667 3.61067 15.1667 4.23822 15.1667 5.01655V5.07952C15.1667 6.12538 15.1667 6.95402 15.0907 7.61047C15.0126 8.28421 14.8488 8.84004 14.4758 9.30771C14.328 9.4931 14.1598 9.66129 13.9744 9.80913C13.5068 10.1821 12.9509 10.3459 12.2772 10.424C11.6207 10.5 10.7921 10.5 9.74628 10.5H6.25385C5.20799 10.5 4.37935 10.5 3.7229 10.424C3.04916 10.3459 2.49333 10.1821 2.02566 9.80913C1.84027 9.66129 1.67208 9.4931 1.52424 9.30771C1.15128 8.84004 0.987482 8.28421 0.90942 7.61047C0.833361 6.95401 0.833367 6.12541 0.833374 5.07953V5.01658C0.833364 4.23824 0.833357 3.61067 0.89124 3.11109C0.95112 2.59426 1.07856 2.15109 1.3788 1.7746C1.49551 1.62825 1.62829 1.49547 1.77465 1.37875C2.15113 1.07852 2.59431 0.951075 3.11113 0.891194C3.61072 0.833311 4.23828 0.833319 5.01663 0.833329ZM3.22623 1.88455C2.80156 1.93375 2.56881 2.02448 2.39814 2.16058C2.31033 2.23061 2.23066 2.31028 2.16063 2.39809C2.02453 2.56876 1.9338 2.80151 1.88459 3.22618C1.83416 3.66147 1.83337 4.23093 1.83337 5.04762C1.83337 6.13254 1.83416 6.90317 1.90278 7.49538C1.97016 8.07696 2.09725 8.42237 2.30607 8.68422C2.40723 8.81107 2.52231 8.92614 2.64915 9.0273C2.85684 9.19293 3.11709 9.30714 3.50606 9.38092C3.51623 9.10452 3.54576 8.85798 3.63947 8.63174C3.82554 8.18252 4.18244 7.82562 4.63166 7.63955C4.82525 7.55936 5.02494 7.52827 5.23634 7.51384C5.43941 7.49999 5.68677 7.49999 5.98308 7.5L10.3821 7.49998C10.6439 7.49985 10.8459 7.49975 11.0242 7.53522C11.7515 7.67988 12.32 8.2484 12.4647 8.97566C12.4886 9.09598 12.4964 9.22706 12.4988 9.38001C12.8851 9.3062 13.1441 9.19225 13.3509 9.0273C13.4778 8.92614 13.5929 8.81106 13.694 8.68422C13.9028 8.42237 14.0299 8.07696 14.0973 7.49538C14.1659 6.90317 14.1667 6.13254 14.1667 5.04761C14.1667 4.23093 14.1659 3.66147 14.1155 3.22618C14.0663 2.80151 13.9756 2.56876 13.8395 2.39809C13.7694 2.31028 13.6898 2.23061 13.6019 2.16058C13.4313 2.02448 13.1985 1.93375 12.7739 1.88455C12.3386 1.83411 11.7691 1.83333 10.9524 1.83333H5.04766C4.23097 1.83333 3.66151 1.83411 3.22623 1.88455ZM11.4995 9.47933C11.4983 9.29296 11.4945 9.22408 11.4839 9.17075C11.4181 8.84018 11.1597 8.58176 10.8292 8.51601C10.7608 8.50242 10.667 8.5 10.3332 8.5H5.99991C5.68244 8.5 5.46938 8.50027 5.30441 8.51152C5.14392 8.52247 5.06578 8.54212 5.01434 8.56343C4.81015 8.64801 4.64793 8.81024 4.56335 9.01443C4.53136 9.09164 4.51153 9.20249 4.50386 9.47947C4.98622 9.49965 5.56702 9.5 6.28576 9.5H9.71433C10.4347 9.5 11.0165 9.49965 11.4995 9.47933Z" fill="#C59856"/>
<path d="M4.94395 11.2506C5.17371 11.4038 5.2358 11.7142 5.08262 11.944L4.87821 12.2506C4.76606 12.4188 4.80487 12.6454 4.9666 12.7667C5.55291 13.2064 5.69358 14.0276 5.28704 14.6374L5.08262 14.944C4.92945 15.1738 4.61901 15.2359 4.38925 15.0827C4.15948 14.9295 4.0974 14.6191 4.25057 14.3893L4.45499 14.0827C4.56713 13.9145 4.52833 13.688 4.3666 13.5667C3.78028 13.1269 3.63962 12.3057 4.04616 11.6959L4.25057 11.3893C4.40375 11.1595 4.71418 11.0975 4.94395 11.2506Z" fill="#C59856"/>
<path d="M8.27728 11.2506C8.50704 11.4038 8.56913 11.7142 8.41595 11.944L8.21154 12.2506C8.0994 12.4188 8.1382 12.6454 8.29993 12.7667C8.88625 13.2064 9.02691 14.0276 8.62037 14.6374L8.41595 14.944C8.26278 15.1738 7.95234 15.2359 7.72258 15.0827C7.49282 14.9295 7.43073 14.6191 7.5839 14.3893L7.78832 14.0827C7.90046 13.9145 7.86166 13.688 7.69993 13.5667C7.11361 13.1269 6.97295 12.3057 7.37949 11.6959L7.5839 11.3893C7.73708 11.1595 8.04752 11.0975 8.27728 11.2506Z" fill="#C59856"/>
<path d="M11.6106 11.2506C11.8404 11.4038 11.9025 11.7142 11.7493 11.944L11.5449 12.2506C11.4327 12.4188 11.4715 12.6454 11.6333 12.7667C12.2196 13.2064 12.3602 14.0276 11.9537 14.6374L11.7493 14.944C11.5961 15.1738 11.2857 15.2359 11.0559 15.0827C10.8261 14.9295 10.7641 14.6191 10.9172 14.3893L11.1217 14.0827C11.2338 13.9145 11.195 13.688 11.0333 13.5667C10.4469 13.1269 10.3063 12.3057 10.7128 11.6959L10.9172 11.3893C11.0704 11.1595 11.3808 11.0975 11.6106 11.2506Z" fill="#C59856"/>
</svg>
