<svg width="219" height="205" viewBox="0 0 219 205" fill="none" xmlns="http://www.w3.org/2000/svg">
<path d="M147.085 34.2375C131.317 31.8066 115.045 34.4565 102.886 44.3115C91.0602 53.8994 85.6947 69.9477 73.3606 78.861C54.312 92.6536 27.2567 88.0721 16.206 112.832C12.264 121.671 11.2478 131.548 11.388 141.223C11.55 153.343 13.5254 165.607 18.7595 176.535C23.9936 187.463 32.7098 196.998 43.8613 201.738C60.3213 208.745 79.3962 204.554 95.9176 197.717C102.733 194.9 109.574 191.585 116.942 191.208C126.218 190.722 135 194.905 143.813 197.844C154.386 201.378 166.098 203.157 176.597 199.399C184.814 196.46 191.568 190.367 196.986 183.525C206.666 171.252 212.618 156.457 214.134 140.899C218.334 96.819 195.589 41.7054 147.085 34.2375Z" fill="#FE6F61"/>
<path opacity="0.7" d="M147.085 34.2375C131.317 31.8066 115.045 34.4565 102.886 44.3115C91.0602 53.8994 85.6947 69.9477 73.3606 78.861C54.312 92.6536 27.2567 88.0721 16.206 112.832C12.264 121.671 11.2478 131.548 11.388 141.223C11.55 153.343 13.5254 165.607 18.7595 176.535C23.9936 187.463 32.7098 196.998 43.8613 201.738C60.3213 208.745 79.3962 204.554 95.9176 197.717C102.733 194.9 109.574 191.585 116.942 191.208C126.218 190.722 135 194.905 143.813 197.844C154.386 201.378 166.098 203.157 176.597 199.399C184.814 196.46 191.568 190.367 196.986 183.525C206.666 171.252 212.618 156.457 214.134 140.899C218.334 96.819 195.589 41.7054 147.085 34.2375Z" fill="white"/>
<path d="M124.414 103.459C121.935 104.37 116.035 103.897 116.031 103.897C116.026 103.897 117.533 100.104 117.66 99.8762C119.118 97.2482 123.49 93.0127 126.797 93.6653C129.184 94.134 130.375 96.6218 129.696 98.8512C129.017 101.081 126.525 102.684 124.414 103.459Z" fill="#FE6F61"/>
<path d="M48.2282 78.6814C51.5964 78.5237 55.2975 83.3504 56.3574 86.1668C56.445 86.412 57.4393 90.3891 57.378 90.3847H57.3035C57.8948 91.1425 58.5212 91.9615 59.1825 92.8725C60.3958 94.5588 61.7492 96.4773 63.0807 98.6629C64.5453 101.002 65.8704 103.425 67.049 105.921C68.3851 108.706 69.4698 111.606 70.2902 114.584L70.3165 114.694C70.3559 113.708 70.5662 110.953 70.6056 110.752C71.175 107.795 74.0045 102.43 77.3508 101.992C79.7642 101.694 81.6695 103.682 81.7308 106.013C81.7921 108.343 79.9218 110.66 78.1567 112.057C76.1682 113.629 70.8246 114.943 70.3997 115.048C71.1607 118.1 71.7167 121.199 72.0641 124.325C72.2787 126.147 72.4364 127.987 72.5678 129.835C72.6335 128.959 72.6948 128.219 72.7167 128.114C73.2818 125.158 76.1156 119.792 79.4619 119.354C81.8753 119.056 83.7806 121.049 83.8419 123.379C83.9033 125.709 82.033 128.022 80.2722 129.419C78.5115 130.816 73.9519 132.047 72.7474 132.354C72.7912 133.063 72.8438 133.769 72.8832 134.478C73.0847 137.881 73.2686 141.28 73.5533 144.605C73.6541 145.774 73.7942 146.926 73.93 148.078C73.9869 147.32 74.0439 146.685 74.0614 146.589C74.6264 143.632 77.4603 138.267 80.8066 137.829C83.2156 137.531 85.1253 139.52 85.1866 141.85C85.2479 144.18 83.3777 146.497 81.6125 147.894C79.8474 149.291 75.7346 150.404 74.3067 150.772C74.4819 151.946 74.6571 153.124 74.8805 154.254C75.0469 155.025 75.1608 155.774 75.371 156.54C75.5813 157.307 75.7608 158.051 75.9536 158.796C76.3916 160.215 76.8033 161.682 77.2457 163.058C77.5523 164.017 77.8589 164.924 78.1655 165.839C78.0516 164.674 77.8808 162.388 77.8852 162.195C78.0832 159.554 78.9532 157.007 80.4124 154.797C80.4227 154.502 80.4593 154.209 80.5219 153.921C81.03 151.643 83.2901 150.067 85.5983 150.833C88.8001 151.897 90.5171 157.732 90.4908 160.741C90.4908 160.92 90.2543 162.843 90.0878 164.056C90.2981 163.36 90.4864 162.681 90.7098 161.963C91.1478 160.544 91.5858 159.142 92.1026 157.631L92.9129 155.441C93.167 154.705 93.5261 153.965 93.8371 153.216C94.5861 151.494 95.427 149.786 96.3162 148.087C95.0723 147.71 90.6879 146.304 88.9797 144.824C87.2715 143.343 85.5282 141 85.6859 138.626C85.8436 136.252 87.8409 134.399 90.2367 134.807C93.5612 135.372 96.1454 140.877 96.5746 143.856C96.6009 144.044 96.6666 146.217 96.6841 147.412C97.2228 146.392 97.7572 145.376 98.3397 144.346C100.017 141.42 101.804 138.517 103.596 135.608C104.139 134.732 104.669 133.826 105.203 132.936C104.765 132.805 99.5092 131.25 97.5995 129.59C95.9001 128.114 94.1437 125.766 94.3058 123.392C94.4678 121.018 96.4563 119.166 98.8522 119.573C102.177 120.138 104.761 125.644 105.19 128.622C105.225 128.85 105.317 131.977 105.3 132.77C106.478 130.808 107.63 128.828 108.69 126.848C110.135 124.171 111.403 121.403 112.487 118.561C112.281 118.5 106.793 116.901 104.835 115.202C103.136 113.73 101.384 111.378 101.542 109.004C101.699 106.63 103.696 104.777 106.092 105.185C109.417 105.75 111.997 111.255 112.43 114.238C112.461 114.47 112.562 117.834 112.535 118.447C112.597 118.281 112.68 118.119 112.741 117.952C113.749 115.072 114.5 112.109 114.984 109.096C115.273 107.436 115.452 105.833 115.597 104.278C114.546 104.085 109.745 103.148 107.814 101.812C105.961 100.533 103.959 98.3913 103.872 96.013C103.784 93.6347 105.549 91.5761 107.971 91.7162C111.34 91.9133 114.511 97.1036 115.264 100.038C115.308 100.196 115.544 101.852 115.702 103.065C115.755 102.355 115.825 101.628 115.864 100.949C116.013 98.4045 115.991 96.0656 115.956 93.9895C115.925 92.8112 115.877 91.7469 115.82 90.7526C114.887 90.0212 111.16 87.0384 110.078 85.0061C108.996 82.9738 108.239 80.1881 109.242 78.0331C110.245 75.8781 112.776 74.8707 114.861 76.1103C117.761 77.8623 118.186 83.9067 117.511 86.8413C117.45 87.0953 116.088 90.9541 116.035 90.9191L115.978 90.8753C116.052 91.8301 116.123 92.8594 116.175 93.9851C116.254 96.0612 116.328 98.4045 116.232 100.962C116.161 103.721 115.93 106.474 115.54 109.206C115.115 112.267 114.419 115.286 113.46 118.224C113.449 118.259 113.436 118.292 113.42 118.325C113.998 117.528 115.698 115.342 115.847 115.189C117.949 113.038 123.293 110.108 126.297 111.61C128.487 112.696 128.969 115.408 127.721 117.379C126.472 119.35 123.652 120.256 121.409 120.445C118.882 120.659 113.7 118.811 113.289 118.662C112.221 121.631 110.955 124.526 109.5 127.326C108.677 128.959 107.792 130.58 106.872 132.196C107.393 131.522 107.871 130.922 107.945 130.843C110.047 128.688 115.391 125.762 118.396 127.264C120.586 128.346 121.063 131.057 119.824 133.033C118.584 135.008 115.75 135.91 113.508 136.099C111.265 136.287 106.784 134.807 105.624 134.395C105.269 135.013 104.923 135.63 104.564 136.248C102.856 139.195 101.134 142.13 99.5355 145.06C98.9748 146.09 98.458 147.128 97.9324 148.166C98.4011 147.566 98.8084 147.066 98.8653 146.992C100.968 144.841 106.311 141.911 109.32 143.413C111.51 144.5 111.988 147.211 110.744 149.182C109.5 151.153 106.671 152.059 104.432 152.248C102.242 152.432 98.1426 151.096 96.7454 150.618C96.2461 151.696 95.7424 152.773 95.3044 153.838C95.0197 154.574 94.6956 155.261 94.4547 156.028C94.2138 156.794 93.9466 157.504 93.6969 158.218C93.2589 159.637 92.8209 161.095 92.4224 162.488C92.1464 163.456 91.9011 164.385 91.6515 165.318C92.199 164.28 93.3203 162.278 93.4298 162.125C95.1818 159.676 99.9998 155.993 103.223 157C105.536 157.745 106.434 160.346 105.501 162.484C104.568 164.621 101.914 165.948 99.7282 166.474C97.3192 167.052 92.1245 166.08 91.4763 165.953C91.069 167.499 90.6879 169.019 90.3506 170.429C90.2762 170.736 90.2148 171.012 90.1448 171.305H88.038C88.1519 170.867 88.2657 170.403 88.3884 169.939C88.7957 168.366 89.2644 166.697 89.7593 164.989C88.2234 164.26 86.7303 163.444 85.2873 162.545C83.4521 164.297 78.9057 166.224 78.3188 166.487C78.8312 167.998 79.3437 169.466 79.8474 170.841L80.027 171.323H77.9202C77.4121 169.838 76.904 168.257 76.3959 166.623C75.7521 166.715 70.5092 167.455 68.1265 166.768C65.9672 166.141 63.3873 164.74 62.5376 162.515C61.6879 160.29 62.726 157.775 65.0693 157.145C68.3236 156.269 72.9752 160.18 74.6177 162.707C74.714 162.856 75.5813 164.591 76.1112 165.694C75.8966 164.998 75.6732 164.323 75.4718 163.605C75.0338 162.186 74.6658 160.758 74.2497 159.225C74.0702 158.476 73.895 157.718 73.7154 156.956C73.5358 156.194 73.4132 155.384 73.2555 154.587C72.9314 152.738 72.6948 150.851 72.4934 148.945C71.2538 149.313 66.7994 150.562 64.5787 150.259C62.358 149.957 59.5899 148.976 58.4117 146.904C57.2334 144.832 57.8773 142.191 60.098 141.21C63.164 139.848 68.3762 143.015 70.3778 145.266C70.5048 145.406 71.7575 147.18 72.4277 148.17C72.3182 147.022 72.2043 145.875 72.1298 144.71C71.9152 141.35 71.8057 137.938 71.6918 134.535C71.6568 133.493 71.6042 132.455 71.5604 131.417C71.1224 131.552 65.8664 133.169 63.3698 132.823C61.1404 132.533 58.381 131.539 57.2028 129.467C56.0246 127.396 56.6684 124.755 58.8891 123.773C61.977 122.411 67.1673 125.578 69.1689 127.829C69.3222 128 71.1224 130.554 71.5517 131.228C71.4465 128.937 71.3239 126.66 71.1137 124.417C70.8426 121.388 70.3729 118.38 69.7077 115.412C69.5062 115.478 64.0443 117.164 61.4733 116.831C59.2439 116.538 56.4845 115.548 55.3106 113.476C54.1368 111.404 54.7719 108.763 56.9969 107.782C60.0629 106.42 65.2708 109.587 67.2768 111.838C67.4301 112.013 69.3704 114.764 69.6858 115.289C69.6464 115.119 69.6245 114.935 69.5807 114.764C68.8357 111.805 67.8272 108.919 66.5672 106.14C65.8927 104.598 65.1612 103.157 64.4167 101.76C63.4312 102.198 58.911 104.05 56.5677 104.002C54.3164 103.954 51.465 103.271 50.0678 101.343C48.6705 99.4163 49.0209 96.7182 51.119 95.5005C54.036 93.8055 59.5461 96.3765 61.7843 98.4001C61.9025 98.5096 63.0194 99.7623 63.8166 100.682C63.4706 100.065 63.1245 99.4206 62.7829 98.8337C61.5039 96.6437 60.1943 94.6859 59.0249 92.9777C58.3503 92.0097 57.7109 91.1512 57.1196 90.3497C55.9413 90.2577 51.189 89.8241 49.1611 88.7247C47.1332 87.6253 44.9738 85.7244 44.619 83.3723C44.2643 81.0203 45.8016 78.7821 48.2282 78.6814Z" fill="#FE6F61"/>
<path d="M64.5743 101.155C64.5218 101.186 63.7378 97.165 63.6983 96.9066C63.4618 93.9019 64.7758 87.9626 67.8944 86.6836C70.1413 85.7594 72.5065 87.1742 73.1504 89.408C73.7942 91.6418 72.6335 94.3705 71.302 96.1795C69.769 98.3082 64.5787 101.151 64.5743 101.155Z" fill="#FE6F61"/>
<path d="M62.7085 163.982C62.7085 163.982 49.4283 163.815 46.3229 158.849H11.6333C11.6333 158.849 14.454 163.938 18.834 163.982H62.7085Z" fill="white" stroke="#263238" stroke-width="0.438" stroke-miterlimit="10"/>
<path d="M45.3155 160.487H17.0557C17.0557 160.487 17.5813 161.634 16.1403 162.265C17.0487 163.104 18.1888 163.651 19.4121 163.833H55.3895C55.3895 163.833 50.808 163.395 48.3245 161.95C48.3245 161.95 45.4469 162.37 45.3155 160.487Z" fill="white" stroke="#263238" stroke-width="0.438" stroke-miterlimit="10"/>
<path d="M57.47 203.687H137.195V193.823H57.47V203.687Z" fill="#263238" stroke="#263238" stroke-width="0.438" stroke-miterlimit="10"/>
<path d="M13.5955 203.687H93.3203V193.823H13.5955V203.687Z" fill="white" stroke="#263238" stroke-width="0.438" stroke-miterlimit="10"/>
<path d="M92.7684 196.455H73.2993" stroke="#263238" stroke-width="0.438" stroke-miterlimit="10"/>
<path d="M88.9271 198.65H60.6849" stroke="#263238" stroke-width="0.438" stroke-miterlimit="10"/>
<path d="M77.6837 200.621H82.6199" stroke="#263238" stroke-width="0.438" stroke-miterlimit="10"/>
<path d="M84.5428 200.621H92.4925" stroke="#263238" stroke-width="0.438" stroke-miterlimit="10"/>
<path d="M14.0642 200.183H39.017" stroke="#263238" stroke-width="0.438" stroke-miterlimit="10"/>
<path d="M16.2585 198.869H19.5479" stroke="#263238" stroke-width="0.438" stroke-miterlimit="10"/>
<path d="M34.9042 198.65H23.9367" stroke="#263238" stroke-width="0.438" stroke-miterlimit="10"/>
<path d="M14.0642 196.017H23.6608" stroke="#263238" stroke-width="0.438" stroke-miterlimit="10"/>
<path d="M136.095 197.988H131.159" stroke="#8A8A8A" stroke-width="0.438" stroke-miterlimit="10"/>
<path d="M137.195 200.183H121.838" stroke="#8A8A8A" stroke-width="0.438" stroke-miterlimit="10"/>
<path d="M94.1393 201.497H101.546" stroke="#8A8A8A" stroke-width="0.438" stroke-miterlimit="10"/>
<path d="M93.3159 197.988H113.337" stroke="#8A8A8A" stroke-width="0.438" stroke-miterlimit="10"/>
<path d="M130.612 195.141H119.097" stroke="#8A8A8A" stroke-width="0.438" stroke-miterlimit="10"/>
<path d="M49.9846 203.468H59.3096V193.823H49.9846V203.468Z" fill="white" stroke="#263238" stroke-width="0.438" stroke-miterlimit="10"/>
<path d="M56.445 193.744H136.17V183.88H56.445V193.744Z" fill="#263238" stroke="#263238" stroke-width="0.438" stroke-miterlimit="10"/>
<path d="M12.5706 193.744H92.2953V183.88H12.5706V193.744Z" fill="white" stroke="#263238" stroke-width="0.438" stroke-miterlimit="10"/>
<path d="M91.7435 186.508H72.2744" stroke="#263238" stroke-width="0.438" stroke-miterlimit="10"/>
<path d="M87.9066 188.698H59.66" stroke="#263238" stroke-width="0.438" stroke-miterlimit="10"/>
<path d="M76.6631 190.674H81.5994" stroke="#263238" stroke-width="0.438" stroke-miterlimit="10"/>
<path d="M83.5178 190.674H91.4719" stroke="#263238" stroke-width="0.438" stroke-miterlimit="10"/>
<path d="M13.0392 190.236H37.9965" stroke="#263238" stroke-width="0.438" stroke-miterlimit="10"/>
<path d="M15.2336 188.917H18.523" stroke="#263238" stroke-width="0.438" stroke-miterlimit="10"/>
<path d="M33.8837 188.698H22.9118" stroke="#263238" stroke-width="0.438" stroke-miterlimit="10"/>
<path d="M13.0392 186.07H22.6402" stroke="#263238" stroke-width="0.438" stroke-miterlimit="10"/>
<path d="M135.075 188.041H130.139" stroke="#8A8A8A" stroke-width="0.438" stroke-miterlimit="10"/>
<path d="M136.17 190.236H120.814" stroke="#8A8A8A" stroke-width="0.438" stroke-miterlimit="10"/>
<path d="M93.1188 191.55H100.521" stroke="#8A8A8A" stroke-width="0.438" stroke-miterlimit="10"/>
<path d="M92.2953 188.041H112.312" stroke="#8A8A8A" stroke-width="0.438" stroke-miterlimit="10"/>
<path d="M129.591 185.194H118.072" stroke="#8A8A8A" stroke-width="0.438" stroke-miterlimit="10"/>
<path d="M48.964 193.525H58.289V183.88H48.964V193.525Z" fill="white" stroke="#263238" stroke-width="0.438" stroke-miterlimit="10"/>
<path d="M59.6862 183.797H139.411V173.933H59.6862V183.797Z" fill="#263238" stroke="#263238" stroke-width="0.438" stroke-miterlimit="10"/>
<path d="M15.8118 183.797H95.5366V173.933H15.8118V183.797Z" fill="white" stroke="#263238" stroke-width="0.438" stroke-miterlimit="10"/>
<path d="M94.9847 176.561H75.5156" stroke="#263238" stroke-width="0.438" stroke-miterlimit="10"/>
<path d="M91.1434 178.751H62.9012" stroke="#263238" stroke-width="0.438" stroke-miterlimit="10"/>
<path d="M79.9 180.727H84.8362" stroke="#263238" stroke-width="0.438" stroke-miterlimit="10"/>
<path d="M86.759 180.727H94.7087" stroke="#263238" stroke-width="0.438" stroke-miterlimit="10"/>
<path d="M16.2805 180.289H41.2333" stroke="#263238" stroke-width="0.438" stroke-miterlimit="10"/>
<path d="M18.4748 178.97H21.7642" stroke="#263238" stroke-width="0.438" stroke-miterlimit="10"/>
<path d="M37.1205 178.751H26.153" stroke="#263238" stroke-width="0.438" stroke-miterlimit="10"/>
<path d="M16.2805 176.123H25.877" stroke="#263238" stroke-width="0.438" stroke-miterlimit="10"/>
<path d="M138.312 178.094H133.375" stroke="#8A8A8A" stroke-width="0.438" stroke-miterlimit="10"/>
<path d="M139.411 180.289H124.055" stroke="#8A8A8A" stroke-width="0.438" stroke-miterlimit="10"/>
<path d="M96.3556 181.603H103.762" stroke="#8A8A8A" stroke-width="0.438" stroke-miterlimit="10"/>
<path d="M95.5322 178.094H115.553" stroke="#8A8A8A" stroke-width="0.438" stroke-miterlimit="10"/>
<path d="M132.828 175.247H121.313" stroke="#8A8A8A" stroke-width="0.438" stroke-miterlimit="10"/>
<path d="M52.2008 183.578H61.5258V173.933H52.2008V183.578Z" fill="white" stroke="#263238" stroke-width="0.438" stroke-miterlimit="10"/>
<path d="M57.2116 173.846H136.936V163.982H57.2116V173.846Z" fill="#263238" stroke="#263238" stroke-width="0.438" stroke-miterlimit="10"/>
<path d="M13.3371 173.846H93.0619V163.982H13.3371V173.846Z" fill="white" stroke="#263238" stroke-width="0.438" stroke-miterlimit="10"/>
<path d="M92.5143 166.614H73.0409" stroke="#263238" stroke-width="0.438" stroke-miterlimit="10"/>
<path d="M88.6731 168.804H60.4265" stroke="#263238" stroke-width="0.438" stroke-miterlimit="10"/>
<path d="M77.4296 170.775H82.3659" stroke="#263238" stroke-width="0.438" stroke-miterlimit="10"/>
<path d="M84.2843 170.775H92.2384" stroke="#263238" stroke-width="0.438" stroke-miterlimit="10"/>
<path d="M13.8058 170.337H38.763" stroke="#263238" stroke-width="0.438" stroke-miterlimit="10"/>
<path d="M16.0001 169.023H19.2939" stroke="#263238" stroke-width="0.438" stroke-miterlimit="10"/>
<path d="M34.6502 168.804H23.6783" stroke="#263238" stroke-width="0.438" stroke-miterlimit="10"/>
<path d="M13.8058 166.176H23.4067" stroke="#263238" stroke-width="0.438" stroke-miterlimit="10"/>
<path d="M135.841 168.147H130.905" stroke="#8A8A8A" stroke-width="0.438" stroke-miterlimit="10"/>
<path d="M136.936 170.337H121.58" stroke="#8A8A8A" stroke-width="0.438" stroke-miterlimit="10"/>
<path d="M93.8853 171.656H101.287" stroke="#8A8A8A" stroke-width="0.438" stroke-miterlimit="10"/>
<path d="M93.0619 168.147H113.078" stroke="#8A8A8A" stroke-width="0.438" stroke-miterlimit="10"/>
<path d="M130.358 165.296H118.838" stroke="#8A8A8A" stroke-width="0.438" stroke-miterlimit="10"/>
<path d="M49.7305 173.627H59.0555V163.982H49.7305V173.627Z" fill="white" stroke="#263238" stroke-width="0.438" stroke-miterlimit="10"/>
<path d="M200.394 52.7737H124.077V203.691H200.394V52.7737Z" fill="#263238" stroke="#263238" stroke-width="0.438" stroke-miterlimit="10"/>
<path d="M192.142 53.4613V79.588" stroke="#8A8A8A" stroke-width="0.438" stroke-miterlimit="10"/>
<path d="M196.955 59.9919V70.9945" stroke="#8A8A8A" stroke-width="0.438" stroke-miterlimit="10"/>
<path d="M194.551 57.5873V96.7751" stroke="#8A8A8A" stroke-width="0.438" stroke-miterlimit="10"/>
<path d="M198.677 52.7737V103.998" stroke="#8A8A8A" stroke-width="0.438" stroke-miterlimit="10"/>
<path d="M192.829 203.345V176.531" stroke="#8A8A8A" stroke-width="0.438" stroke-miterlimit="10"/>
<path d="M195.58 203.691V197.844" stroke="#8A8A8A" stroke-width="0.438" stroke-miterlimit="10"/>
<path d="M196.268 195.781V172.063" stroke="#8A8A8A" stroke-width="0.438" stroke-miterlimit="10"/>
<path d="M193.176 173.092V134.246" stroke="#8A8A8A" stroke-width="0.438" stroke-miterlimit="10"/>
<path d="M189.737 52.7737H113.42V203.691H189.737V52.7737Z" fill="#FE6F61" stroke="#263238" stroke-width="0.438" stroke-miterlimit="10"/>
<path d="M183.207 63.4521C181.715 63.4487 180.281 62.8746 179.2 61.8475C178.118 60.8204 177.471 59.4184 177.39 57.929H125.776C125.698 59.4206 125.049 60.8252 123.965 61.8529C122.881 62.8806 121.444 63.4531 119.951 63.4521C119.605 63.4513 119.261 63.419 118.921 63.3558V190.034C119.261 189.973 119.605 189.941 119.951 189.938C120.96 189.938 121.952 190.199 122.83 190.696C123.708 191.193 124.442 191.91 124.961 192.775C125.481 193.64 125.767 194.625 125.792 195.634C125.817 196.643 125.581 197.641 125.106 198.531H178.051C177.575 197.641 177.338 196.643 177.362 195.633C177.387 194.624 177.673 193.639 178.192 192.773C178.712 191.907 179.447 191.191 180.326 190.694C181.204 190.197 182.197 189.936 183.207 189.938C183.552 189.941 183.896 189.973 184.236 190.034V63.3339C183.897 63.4045 183.553 63.4441 183.207 63.4521ZM150.033 151.092C137.974 151.092 128.203 140.474 128.203 127.374C128.203 114.273 137.974 103.652 150.033 103.652C162.091 103.652 171.862 114.273 171.862 127.374C171.862 140.474 162.086 151.092 150.033 151.092Z" fill="white" stroke="#263238" stroke-width="0.438" stroke-miterlimit="10"/>
<path d="M200.254 119.122H113.762V134.592H200.254V119.122Z" fill="white" stroke="#263238" stroke-width="0.438" stroke-miterlimit="10"/>
<path d="M200.254 119.122H189.904V134.592H200.254V119.122Z" fill="#3D3D3D" stroke="#8A8A8A" stroke-width="0.438" stroke-miterlimit="10"/>
<path d="M30.0818 194.305L27.5327 198.128L22.5526 202.07V203.695H39.5864L39.0039 198.001V195.452C39.0039 195.452 32.0528 192.448 30.0818 194.305Z" fill="#263238" stroke="#263238" stroke-width="0.438" stroke-miterlimit="10"/>
<path d="M39.4331 202.184H22.5526V203.691H39.5864L39.4331 202.184Z" fill="white" stroke="#263238" stroke-width="0.438" stroke-miterlimit="10"/>
<path d="M58.2102 194.305L60.9258 198.128L66.2387 202.07V203.695H48.0836L48.7012 198.001V195.452C48.7012 195.452 56.1122 192.448 58.2102 194.305Z" fill="#263238" stroke="#263238" stroke-width="0.438" stroke-miterlimit="10"/>
<path d="M48.2457 202.184H66.2387V203.691H48.0836L48.2457 202.184Z" fill="white" stroke="#263238" stroke-width="0.438" stroke-miterlimit="10"/>
<path d="M22.4825 114.996C22.4825 114.996 26.4596 159.882 26.7443 168.406C27.029 176.929 29.727 188.435 29.727 188.435L28.47 190.424L29.7489 194.826C29.7489 194.826 32.7317 194.116 34.2954 194.686C35.859 195.255 38.6754 195.965 38.6754 195.965C38.6754 195.965 40.0989 192.128 40.239 190.424C40.3792 188.72 38.544 184.598 38.544 184.598L38.2593 133.322H40.8172L47.3434 187.581L47.0587 190.849L48.3377 195.965C48.3377 195.965 55.8669 194.401 56.4319 194.256C56.8635 194.191 57.3046 194.241 57.7108 194.401C57.7108 194.401 58.5868 192.553 58.5868 191.983C58.5868 191.414 57.4481 188.151 57.4481 188.151L57.1633 162.725V114.571L22.5044 113.861L22.4825 114.996Z" fill="#FE6F61" stroke="#263238" stroke-width="0.438" stroke-miterlimit="10"/>
<path d="M55.9413 134.82L56.7166 151.801L53.4097 152.099V154.206L55.8143 154.355" stroke="#263238" stroke-width="0.438" stroke-linecap="round" stroke-linejoin="round"/>
<path d="M55.3632 122.188L55.8669 133.155" stroke="#263238" stroke-width="0.438" stroke-linecap="round" stroke-linejoin="round"/>
<path d="M53.9178 164.284C54.0273 167.319 54.2682 169.952 54.7631 170.136C55.9676 170.574 56.2655 171.038 56.2655 171.038" stroke="#263238" stroke-width="0.438" stroke-linecap="round" stroke-linejoin="round"/>
<path d="M53.874 154.806C53.874 154.806 53.7951 158.643 53.874 162.479" stroke="#263238" stroke-width="0.438" stroke-linecap="round" stroke-linejoin="round"/>
<path d="M34.7728 131.806L40.7822 132.258" stroke="#263238" stroke-width="0.438" stroke-linecap="round" stroke-linejoin="round"/>
<path d="M36.7263 117.379L36.8752 125.793L39.582 127.75" stroke="#263238" stroke-width="0.438" stroke-linecap="round" stroke-linejoin="round"/>
<path d="M39.582 120.383L40.0332 130.755" stroke="#263238" stroke-width="0.438" stroke-linecap="round" stroke-linejoin="round"/>
<path d="M37.7249 168.489L37.9264 178.856" stroke="#263238" stroke-width="0.438" stroke-linecap="round" stroke-linejoin="round"/>
<path d="M37.0241 132.406L37.6768 165.927" stroke="#263238" stroke-width="0.438" stroke-linecap="round" stroke-linejoin="round"/>
<path d="M49.2005 121.737C49.2005 121.737 51.3073 126.095 55.2143 124.741" stroke="#263238" stroke-width="0.438" stroke-linecap="round" stroke-linejoin="round"/>
<path d="M28.159 121.737C28.159 121.737 26.6523 125.044 24.2477 125.495" stroke="#263238" stroke-width="0.438" stroke-linecap="round" stroke-linejoin="round"/>
<path d="M37.0854 64.9106L32.5697 66.2772L28.7853 114.808L48.745 115.127L49.7962 65.226L37.0854 64.9106Z" fill="white" stroke="#263238" stroke-width="0.438" stroke-miterlimit="10"/>
<path d="M35.478 63.0141H34.418L33.8837 64.3982L34.0983 76.1147L40.7033 71.8573L47.1989 78.0331L48.053 64.0784C48.053 64.0784 48.3727 63.439 47.4135 63.0141C46.4543 62.5892 46.1345 62.4797 46.1345 62.4797L35.478 63.0141Z" fill="white" stroke="#263238" stroke-width="0.438" stroke-miterlimit="10"/>
<path d="M34.8429 59.5976L35.1626 64.4156C35.1626 64.4156 38.2286 71.1258 40.2741 72.085C42.3196 73.0442 46.9886 64.0959 46.9886 64.0959L46.6689 58.7698H34.7334L34.8429 59.5976Z" fill="white" stroke="#263238" stroke-width="0.438" stroke-miterlimit="10"/>
<path d="M34.8429 59.5976C34.8429 59.5976 38.6754 67.9196 40.9136 68.2306C43.1518 68.5416 46.774 60.5569 46.774 59.8123C46.774 59.0677 34.8429 59.5976 34.8429 59.5976Z" fill="#263238" stroke="#263238" stroke-width="0.438" stroke-miterlimit="10"/>
<path d="M32.8193 52.4671C32.8193 52.4671 30.971 50.9516 30.7169 53.054C30.4629 55.1564 33.1566 57.0923 33.1566 57.0923L32.8193 52.4671Z" fill="white" stroke="#263238" stroke-width="0.438" stroke-miterlimit="10"/>
<path d="M47.8427 52.4671C47.8427 52.4671 49.6955 50.9516 49.9495 53.054C50.2036 55.1564 47.5099 57.0923 47.5099 57.0923L47.8427 52.4671Z" fill="white" stroke="#263238" stroke-width="0.438" stroke-miterlimit="10"/>
<path d="M32.4821 52.7167C32.4821 52.7167 33.4939 58.6078 34.3348 59.6984C35.1758 60.789 37.7819 64.5777 40.2215 65.2522C42.6612 65.9268 46.4499 61.2139 47.2033 59.6152C47.9566 58.0165 48.215 50.9515 48.215 50.9515L48.1318 47.1672C48.1318 47.1672 47.8778 44.3903 46.7828 42.8748C45.6878 41.3593 40.9793 40.3519 37.8695 41.5521C34.7597 42.7522 32.1492 48.1746 32.1492 49.2696C32.1492 50.3646 32.4821 52.7167 32.4821 52.7167Z" fill="white" stroke="#263238" stroke-width="0.438" stroke-miterlimit="10"/>
<path d="M38.0359 46.1554C38.0359 46.1554 35.4079 49.1864 34.2516 49.7733C33.7262 50.0154 33.2196 50.2966 32.7361 50.6143L32.9025 54.1489L31.5579 49.3309C31.5579 49.3309 29.876 44.2195 30.222 41.9506C30.568 39.6818 38.2111 37.4918 40.9048 36.6508C43.5985 35.8099 44.6059 37.4918 46.371 38.8408C48.1362 40.1899 49.9889 41.1973 49.7393 43.4705C49.5218 45.0517 49.1265 46.6033 48.561 48.0958C48.561 48.0958 48.123 54.403 48.123 54.6658C48.123 54.9286 47.3653 48.4418 47.3653 48.4418C46.9357 48.3288 46.5482 48.0937 46.2496 47.7648C45.9511 47.4359 45.7544 47.0275 45.6834 46.5891C45.4598 45.4793 45.3134 44.3553 45.2454 43.2252C45.2454 43.2252 44.1504 45.4984 43.0554 46.5891C41.9604 47.6797 39.2711 48.6915 38.8506 48.6082C38.4301 48.525 39.2886 46.5058 39.2886 46.5058L37.7731 47.9381L38.0359 46.1554Z" fill="#263238" stroke="#263238" stroke-width="0.438" stroke-miterlimit="10"/>
<path d="M38.7104 57.9332C39.127 58.3039 39.6121 58.5896 40.1383 58.7742C40.8128 58.9406 41.991 57.9332 42.3283 57.6792" stroke="#263238" stroke-width="0.438" stroke-miterlimit="10"/>
<path d="M38.4564 60.2897C38.4564 60.2897 40.3923 61.8008 42.9984 60.0356L38.4564 60.2897Z" fill="white"/>
<path d="M38.4564 60.2897C38.4564 60.2897 40.3923 61.8008 42.9984 60.0356" stroke="#263238" stroke-width="0.438" stroke-miterlimit="10"/>
<path d="M37.1511 54.9023C37.4535 54.9023 37.6986 54.4885 37.6986 53.9781C37.6986 53.4677 37.4535 53.054 37.1511 53.054C36.8488 53.054 36.6036 53.4677 36.6036 53.9781C36.6036 54.4885 36.8488 54.9023 37.1511 54.9023Z" fill="#263238"/>
<path d="M43.5459 54.9023C43.8483 54.9023 44.0934 54.4885 44.0934 53.9781C44.0934 53.4677 43.8483 53.054 43.5459 53.054C43.2436 53.054 42.9984 53.4677 42.9984 53.9781C42.9984 54.4885 43.2436 54.9023 43.5459 54.9023Z" fill="#263238"/>
<path d="M42.2407 51.0348C42.783 50.7507 43.4016 50.6464 44.007 50.7369C44.6125 50.8275 45.1735 51.1082 45.6089 51.5385" stroke="#263238" stroke-width="0.438" stroke-miterlimit="10"/>
<path d="M37.7818 50.9515C37.3533 50.6977 36.8493 50.6025 36.3577 50.6825C35.8662 50.7626 35.4183 51.0128 35.0925 51.3895" stroke="#263238" stroke-width="0.438" stroke-miterlimit="10"/>
<path d="M43.7562 55.5769L45.6089 55.1564" stroke="#263238" stroke-width="0.438" stroke-miterlimit="10"/>
<path d="M35.259 55.0731L36.7745 55.5768" stroke="#263238" stroke-width="0.438" stroke-miterlimit="10"/>
<path d="M33.9888 75.278L33.0296 121.268L22.0796 120.738L21.4182 119.472C21.4182 119.472 19.929 119.472 19.7144 118.298C19.4997 117.125 21.2036 91.3482 21.2036 91.3482L11.826 90.4941L18.1113 78.2301C18.1113 78.2301 20.0297 69.7066 20.4546 69.0672C20.8794 68.4277 34.199 63.8462 34.199 63.8462L33.9888 75.278Z" fill="#263238" stroke="#263238" stroke-width="0.438" stroke-miterlimit="10"/>
<path d="M47.6281 63.5747L46.0645 121.391L60.1243 121.246L60.6937 119.117L62.1128 118.123V113.577C62.1128 111.304 59.4147 94.826 59.4147 94.826C59.4147 94.826 66.5191 93.8317 66.6592 92.4126C66.7994 90.9935 63.6764 69.5446 61.9726 67.981C60.2688 66.4173 47.6281 63.5747 47.6281 63.5747Z" fill="#263238" stroke="#263238" stroke-width="0.438" stroke-miterlimit="10"/>
<path d="M51.154 96.543L53.0243 101.93C53.0243 101.93 54.1061 99.3287 53.9441 97.6905C53.782 96.0524 53.7776 95.5575 53.2871 95.4743C52.7965 95.391 51.246 95.0669 51.154 96.543Z" fill="white" stroke="#263238" stroke-width="0.438" stroke-miterlimit="10"/>
<path d="M32.4645 82.5445L38.452 94.4406L44.768 91.322L39.4375 78.7733L32.4645 82.5445Z" fill="#FE6F61" stroke="#263238" stroke-width="0.438" stroke-miterlimit="10"/>
<path d="M42.8495 90.8446C42.7778 90.6552 42.7836 90.4451 42.8656 90.2599C42.9475 90.0746 43.0991 89.9291 43.2875 89.8547C43.3224 89.8505 43.3577 89.8505 43.3926 89.8547L39.4506 80.6173C39.4148 80.7036 39.3599 80.7807 39.2902 80.8429C39.2204 80.9051 39.1375 80.9507 39.0477 80.9765C38.913 81.0078 38.772 80.9978 38.6431 80.9478C38.5142 80.8978 38.4033 80.8101 38.325 80.6961L34.164 82.9343C34.2176 83.0148 34.2576 83.1036 34.2822 83.1971C34.3403 83.3648 34.3418 83.5468 34.2864 83.7153C34.231 83.8839 34.1218 84.0296 33.9756 84.1301L38.1323 92.3601C38.2066 92.2776 38.302 92.217 38.4082 92.1849C38.5845 92.1514 38.767 92.182 38.9228 92.2711C39.0786 92.3603 39.1974 92.5021 39.2579 92.6711L42.8627 90.8928L42.8495 90.8446ZM39.293 88.7159C38.5265 88.9305 37.6986 88.3655 37.4402 87.4501C37.1818 86.5347 37.5891 85.6149 38.3513 85.4003C39.1134 85.1856 39.9456 85.7507 40.204 86.6661C40.4624 87.5815 40.0551 88.4969 39.293 88.7159Z" fill="white" stroke="#263238" stroke-width="0.438" stroke-miterlimit="10"/>
<path d="M35.0269 81.0816L38.2243 94.0069L45.0746 92.3688L42.6612 78.9529L35.0269 81.0816Z" fill="#FE6F61" stroke="#263238" stroke-width="0.438" stroke-miterlimit="10"/>
<path d="M43.3094 91.484C43.2946 91.3836 43.2996 91.2813 43.3244 91.1828C43.3492 91.0844 43.3932 90.9919 43.4538 90.9105C43.5144 90.8291 43.5905 90.7605 43.6778 90.7086C43.765 90.6566 43.8616 90.6225 43.9621 90.608C43.997 90.6038 44.0323 90.6038 44.0672 90.608L42.3152 80.7311C42.2603 80.8068 42.1895 80.8696 42.1078 80.915C42.0261 80.9604 41.9354 80.9873 41.8421 80.9939C41.7029 80.993 41.5671 80.951 41.4517 80.873C41.3363 80.7951 41.2466 80.6848 41.1939 80.5559L36.6124 81.848C36.6486 81.9388 36.6693 82.035 36.6737 82.1327C36.6928 82.3092 36.6535 82.4871 36.5617 82.639C36.4699 82.7909 36.3308 82.9085 36.1656 82.9737L38.3776 91.922C38.4679 91.8589 38.5741 91.8225 38.6841 91.8169C38.8631 91.8211 39.0344 91.8899 39.1665 92.0107C39.2986 92.1315 39.3824 92.296 39.4025 92.4739L43.3138 91.5409L43.3094 91.484ZM40.296 88.6107C39.5032 88.6545 38.8199 87.9187 38.7717 86.9682C38.7236 86.0178 39.3236 85.2162 40.1164 85.1724C40.9092 85.1286 41.5881 85.8688 41.6406 86.8193C41.6932 87.7698 41.1063 88.5713 40.296 88.6107Z" fill="white" stroke="#263238" stroke-width="0.438" stroke-miterlimit="10"/>
<path d="M38.8156 80.0829L38.0797 93.3762L45.1096 93.8229L46.739 80.2844L38.8156 80.0829Z" fill="#FE6F61" stroke="#263238" stroke-width="0.438" stroke-miterlimit="10"/>
<path d="M43.6817 92.4521C43.7141 92.2516 43.8242 92.0719 43.9882 91.9522C44.1523 91.8325 44.3569 91.7823 44.5577 91.8126C44.5943 91.8211 44.6296 91.8344 44.6628 91.852L45.863 81.8831C45.7888 81.9406 45.7027 81.9806 45.6109 82.0004C45.5192 82.0201 45.4242 82.0189 45.333 81.997C45.2 81.9571 45.0821 81.8781 44.9947 81.7703C44.9072 81.6625 44.8541 81.5309 44.8424 81.3926L40.1076 81.2743C40.1161 81.37 40.1072 81.4664 40.0814 81.559C40.0483 81.7335 39.9588 81.8924 39.8267 82.0111C39.6945 82.1298 39.527 82.2018 39.3499 82.216L38.8418 91.414C38.9492 91.3832 39.063 91.3832 39.1703 91.414C39.3403 91.472 39.4836 91.5896 39.5737 91.7449C39.6639 91.9003 39.6948 92.083 39.6609 92.2593L43.6773 92.5134C43.6736 92.4929 43.6751 92.4718 43.6817 92.4521ZM41.6582 88.8298C40.8917 88.6371 40.4537 87.7348 40.6858 86.8106C40.9179 85.8864 41.7282 85.2951 42.4991 85.4966C43.27 85.6981 43.6992 86.596 43.4715 87.5202C43.2437 88.4443 42.429 89.0225 41.6582 88.8298Z" fill="white" stroke="#263238" stroke-width="0.438" stroke-miterlimit="10"/>
<path d="M53.2871 93.0958C52.5127 92.9795 51.7462 92.8157 50.992 92.6053C50.6635 92.4432 48.2851 91.6198 46.3973 90.6387C44.5096 89.6576 42.9546 90.6387 40.2653 91.1292C37.576 91.6198 36.8183 91.7862 36.8183 92.4432C36.8183 93.1002 38.2155 93.2623 38.2155 93.2623C38.2155 93.2623 36.9015 93.4244 37.5585 94.3266C37.9455 94.8628 38.4908 95.2641 39.1178 95.4742C39.481 96.0761 39.9534 96.6049 40.5106 97.0335C41.3297 97.6072 41.9034 98.1022 41.9034 98.1022C42.417 98.7419 43.1 99.2245 43.8744 99.495C45.022 99.8235 51.5 97.8525 51.5 97.8525C51.5 97.8525 53.4667 98.4263 53.9616 97.362C54.4565 96.2976 53.2871 93.0958 53.2871 93.0958Z" fill="white" stroke="#263238" stroke-width="0.438" stroke-linecap="round" stroke-linejoin="round"/>
<path d="M38.198 93.2623C38.198 93.2623 43.1167 93.0959 44.676 92.6053" stroke="#263238" stroke-width="0.438" stroke-linecap="round" stroke-linejoin="round"/>
<path d="M39.1003 95.4743C40.456 95.6914 41.8269 95.8012 43.1999 95.8028C44.0084 95.7867 44.7991 95.5619 45.4951 95.1501" stroke="#263238" stroke-width="0.438" stroke-linecap="round" stroke-linejoin="round"/>
<path d="M41.172 97.5284C41.172 97.5284 44.0409 98.4044 45.99 97.7737" stroke="#263238" stroke-width="0.438" stroke-linecap="round" stroke-linejoin="round"/>
<path d="M55.7223 79.058L57.286 91.2738L52.8797 92.5528C52.8797 92.5528 53.5937 96.2451 53.3177 97.9533C53.1325 99.271 53.0374 100.6 53.033 101.93C53.033 101.93 57.851 100.367 60.9871 100.082C64.1232 99.7973 66.8125 98.3782 67.6622 96.1049C68.5119 93.8317 65.8183 86.0309 65.8183 86.0309" fill="#263238"/>
<path d="M55.7223 79.058L57.286 91.2738L52.8797 92.5528C52.8797 92.5528 53.5937 96.2451 53.3177 97.9533C53.1325 99.271 53.0374 100.6 53.033 101.93C53.033 101.93 57.851 100.367 60.9871 100.082C64.1232 99.7973 66.8125 98.3782 67.6622 96.1049C68.5119 93.8317 65.8183 86.0309 65.8183 86.0309" stroke="#263238" stroke-width="0.438" stroke-miterlimit="10"/>
<path d="M55.1398 92.1936L57.286 91.2738L62.7172 89.8153" stroke="#6B6B6B" stroke-width="0.438" stroke-miterlimit="10"/>
<path d="M57.286 91.2738L55.5997 76.8461" stroke="#6B6B6B" stroke-width="0.438" stroke-miterlimit="10"/>
<path d="M29.5124 90.9935C29.5124 90.9935 28.5313 86.6485 28.1196 85.8251C27.7079 85.0017 25.4916 87.3055 25.3295 88.0414C25.1675 88.7772 28.8554 91.0767 29.5124 90.9935Z" fill="white" stroke="#263238" stroke-width="0.438" stroke-miterlimit="10"/>
<path d="M27.3706 81.848L25.2507 84.3359C25.2507 84.3359 25.842 87.98 26.315 88.1246C26.7881 88.2691 30.1694 85.663 30.1694 85.663L27.3706 81.848Z" fill="white" stroke="#263238" stroke-width="0.438" stroke-miterlimit="10"/>
<path d="M31.3082 76.8592C31.3082 76.8592 27.6159 80.4683 27.3662 81.8612C27.1166 83.254 29.7446 85.882 30.0731 86.1273C30.4016 86.3726 32.7799 84.4848 32.8588 84.1563C32.9376 83.8278 31.3039 81.2874 31.3039 81.2874C32.0564 81.6561 32.7876 82.067 33.4939 82.5182C33.7391 82.7635 35.2984 84.9797 35.8722 84.8133C36.446 84.6469 36.2007 83.5825 35.8722 82.6014C35.5437 81.6203 32.0178 78.3353 32.0178 78.3353L34.3961 78.9091C34.3961 78.9091 37.1862 81.6159 37.8432 81.6159C38.5002 81.6159 38.1717 80.9589 37.76 80.3851C37.3483 79.8113 35.3816 77.5162 34.8911 76.9424C34.4005 76.3687 32.5127 76.0402 32.2631 76.0402C32.0134 76.0402 31.3082 76.8592 31.3082 76.8592Z" fill="white" stroke="#263238" stroke-width="0.438" stroke-linecap="round" stroke-linejoin="round"/>
<path d="M31.3082 81.2875L30.1607 80.1399" stroke="#263238" stroke-width="0.438" stroke-linecap="round" stroke-linejoin="round"/>
<path d="M28.6846 81.5327L31.6367 85.1418" stroke="#263238" stroke-width="0.438" stroke-linecap="round" stroke-linejoin="round"/>
<path d="M25.1675 83.9417C25.1675 83.9417 25.7412 85.9083 26.0697 87.1391C26.3982 88.3698 29.5124 90.9935 29.5124 90.9935C29.5124 90.9935 25.0842 95.6669 21.1466 97.7167C17.209 99.7666 12.5837 98.7373 11.1909 97.0992C9.79805 95.4611 10.3718 90.7044 11.5194 89.7189C12.6669 88.7334 19.3421 87.4676 20.9846 86.5653C22.6271 85.663 25.1675 83.9417 25.1675 83.9417Z" fill="#263238" stroke="#263238" stroke-width="0.438" stroke-miterlimit="10"/>
<path d="M25.1675 83.9417L14.3752 89.2152" stroke="#6B6B6B" stroke-width="0.438" stroke-miterlimit="10"/>
<path d="M23.7659 84.6337V79.5967" stroke="#6B6B6B" stroke-width="0.438" stroke-miterlimit="10"/>
<path d="M95.5891 195.421C95.5891 195.421 94.2751 195.794 90.7711 193.196C87.2671 190.599 83.1674 186.889 83.1674 186.889C83.1674 186.889 87.2145 186.346 89.0848 185.361C91.1434 184.27 93.5524 181.695 93.5524 181.695C93.5524 181.695 101.712 192.824 111.918 192.084C111.741 193.033 111.327 193.921 110.714 194.667C110.101 195.413 109.31 195.992 108.414 196.35C105.234 197.647 95.5891 195.421 95.5891 195.421Z" fill="#FE6F61" stroke="#263238" stroke-width="0.438" stroke-linejoin="round"/>
<path d="M108.83 193.359C108.83 193.359 100.166 191.085 95.484 186.114C95.2584 186.176 95.0219 186.186 94.7917 186.145C94.5615 186.104 94.3434 186.012 94.153 185.876C93.9627 185.741 93.8049 185.564 93.6912 185.36C93.5775 185.155 93.5106 184.928 93.4955 184.695C91.8586 186.232 89.7599 187.185 87.5255 187.406C87.5255 187.406 87.6657 188.4 87.2408 188.685C87.2408 188.685 93.916 194.511 97.7528 195.22C100.416 195.753 103.142 195.9 105.847 195.658C107.015 195.535 108.112 195.037 108.974 194.239C108.974 194.239 107.551 193.928 108.83 193.359ZM100.648 193.039C100.337 193.805 98.7909 193.915 97.1922 193.249C95.5935 192.583 94.5642 191.458 94.8533 190.696C95.1424 189.933 96.7104 189.82 98.3091 190.485C99.9078 191.151 100.955 192.277 100.648 193.039Z" fill="white" stroke="#263238" stroke-width="0.438" stroke-miterlimit="10"/>
<path d="M94.2751 195.189C94.2751 195.189 98.7427 197.029 102.269 197.029C104.332 197.041 106.39 196.813 108.401 196.35C108.401 196.35 107.196 197.007 105.238 195.75C104.121 195.032 103.403 193.433 103.403 193.433C100.456 194.438 97.3844 195.03 94.2751 195.189Z" fill="#FE6F61" stroke="#263238" stroke-width="0.438" stroke-linejoin="round"/>
<path d="M144.461 176.482C144.461 176.482 152.595 173.806 157.351 170.631L162.41 178.953C162.41 178.953 150.313 188.374 147.137 185.895L144.461 176.482Z" fill="#FE6F61" stroke="#263238" stroke-width="0.438" stroke-linejoin="round"/>
<path d="M158.941 178.467C158.952 178.226 159.04 177.996 159.192 177.811C159.345 177.625 159.553 177.494 159.787 177.437L157.54 173.71C157.352 173.774 157.155 173.806 156.957 173.806C156.717 173.819 156.476 173.773 156.257 173.672C156.038 173.572 155.847 173.419 155.7 173.228C151.5 176.167 145.057 177.674 145.057 177.674L146.345 182.733C146.345 182.733 146.147 185.51 149.616 184.813C152.306 184.274 157.365 180.871 159.515 179.386C159.346 179.298 159.204 179.166 159.103 179.005C159.002 178.843 158.946 178.657 158.941 178.467ZM150.273 182.19C148.754 182.536 147.339 182.019 147.111 181.033C146.883 180.048 147.934 178.961 149.454 178.611C150.974 178.261 152.393 178.782 152.621 179.767C152.849 180.753 151.798 181.839 150.273 182.19Z" fill="white" stroke="#263238" stroke-width="0.438" stroke-miterlimit="10"/>
<path d="M143.27 172.716L148.824 183.723C148.824 183.723 146.94 184.712 147.137 185.913L141.785 175.401C141.785 175.401 141.089 173.705 143.27 172.716Z" fill="#FE6F61" stroke="#263238" stroke-width="0.438" stroke-linejoin="round"/>
<path d="M142.258 176.325L146.384 184.419C146.56 184.03 146.871 183.719 147.26 183.543L142.674 175.493L142.258 176.325Z" fill="white" stroke="#263238" stroke-width="0.438" stroke-miterlimit="10"/>
<path d="M82.9966 115.044L83.0842 136.143L94.0955 136.094L94.1306 114.567L82.9966 115.044Z" fill="#FE6F61" stroke="#263238" stroke-width="0.438" stroke-miterlimit="10"/>
<path d="M91.6822 134.071C91.6916 133.913 91.7323 133.759 91.802 133.618C91.8717 133.476 91.9689 133.35 92.088 133.246C92.2071 133.142 92.3457 133.064 92.4956 133.014C92.6455 132.965 92.8038 132.946 92.9611 132.958C93.0164 132.97 93.0706 132.986 93.1232 133.006L93.1013 116.945C93.0039 117.033 92.888 117.098 92.7622 117.135C92.6363 117.172 92.5037 117.181 92.3742 117.16C92.1812 117.112 92.0063 117.009 91.8709 116.864C91.7355 116.718 91.6456 116.536 91.6121 116.341L84.972 116.625C84.9936 116.762 84.9936 116.901 84.972 117.037C84.9499 117.286 84.8453 117.521 84.6747 117.704C84.5042 117.888 84.2774 118.009 84.0303 118.049V132.941C84.1913 132.876 84.367 132.856 84.5384 132.884C84.8114 132.963 85.0482 133.135 85.2081 133.37C85.368 133.605 85.4409 133.889 85.4144 134.172L91.7041 134.145C91.6822 134.11 91.6778 134.088 91.6822 134.071ZM88.038 128.526C86.816 128.302 86.0101 126.914 86.2378 125.42C86.4656 123.927 87.6526 122.897 88.8658 123.125C90.0791 123.353 90.8981 124.737 90.666 126.231C90.4339 127.724 89.2469 128.753 88.038 128.526Z" fill="white" stroke="#263238" stroke-width="0.438" stroke-miterlimit="10"/>
<path d="M185.957 25.771L170.601 41.1273L178.616 49.1427L194.376 33.5674L185.957 25.771Z" fill="#FE6F61" stroke="#263238" stroke-width="0.438" stroke-miterlimit="10"/>
<path d="M178.345 45.9322C178.467 45.8229 178.61 45.7394 178.765 45.6865C178.92 45.6336 179.084 45.6124 179.248 45.6243C179.411 45.6361 179.571 45.6807 179.716 45.7554C179.862 45.8302 179.992 45.9335 180.097 46.0592C180.13 46.1088 180.158 46.1616 180.18 46.2169L191.897 34.5442C191.761 34.5371 191.629 34.4996 191.51 34.4344C191.391 34.3692 191.288 34.2779 191.209 34.1675C191.104 33.9916 191.052 33.789 191.061 33.5843C191.07 33.3797 191.138 33.182 191.257 33.0155L186.229 28.3508C186.143 28.4653 186.041 28.567 185.927 28.653C185.728 28.8182 185.48 28.9119 185.222 28.9191C184.964 28.9262 184.71 28.8464 184.503 28.6925L173.61 39.4673C173.773 39.5351 173.915 39.6474 174.017 39.7914C174.161 40.048 174.21 40.347 174.156 40.6361C174.101 40.9252 173.947 41.1859 173.72 41.3726L178.297 45.9541L178.345 45.9322ZM179.746 39.2395C179.019 38.1839 179.453 36.5852 180.71 35.6698C181.967 34.7544 183.579 34.877 184.302 35.9326C185.024 36.9882 184.591 38.5913 183.334 39.5023C182.077 40.4134 180.456 40.2776 179.746 39.2176V39.2395Z" fill="white" stroke="#263238" stroke-width="0.438" stroke-miterlimit="10"/>
<path d="M80.154 90.1438L101.52 81.6948L97.109 70.5433L75.2571 79.0362L80.154 90.1438Z" fill="#FE6F61" stroke="#263238" stroke-width="0.438" stroke-miterlimit="10"/>
<path d="M96.0096 73.7933C95.2343 73.9642 94.5029 73.5831 94.3759 72.9173C94.3713 72.8546 94.3713 72.7917 94.3759 72.729L78.0866 79.115C78.2153 79.1792 78.3279 79.2716 78.4158 79.3854C78.5038 79.4992 78.565 79.6313 78.5947 79.772C78.6222 79.9863 78.5868 80.204 78.4926 80.3984C78.3985 80.5928 78.2498 80.7557 78.0647 80.867L80.9774 87.5422C81.1148 87.4672 81.2623 87.4126 81.4154 87.3801C81.677 87.303 81.9568 87.3159 82.2102 87.4168C82.4635 87.5176 82.6757 87.7006 82.8127 87.9364L97.9193 82.0584C97.7881 81.9246 97.6983 81.7558 97.6609 81.5722C97.6266 81.262 97.7039 80.9498 97.8788 80.6914C98.0538 80.433 98.315 80.2453 98.6157 80.1619L96.0928 73.789L96.0096 73.7933ZM91.8398 79.702C92.0982 81.016 91.0076 82.4044 89.4002 82.768C87.7927 83.1315 86.286 82.33 86.0276 81.016C85.7692 79.702 86.8598 78.3179 88.4672 77.95C90.0747 77.582 91.5814 78.3705 91.8398 79.702Z" fill="white" stroke="#263238" stroke-width="0.438" stroke-miterlimit="10"/>
<path d="M155.564 25.7009C155.564 25.7009 156.878 26.0469 158.569 30.0809C160.26 34.1148 161.88 39.3884 161.88 39.3884C161.88 39.3884 158.122 37.7853 156.011 37.6758C153.681 37.5575 150.295 38.5518 150.295 38.5518C150.295 38.5518 148.981 24.8117 139.831 20.2346C140.468 19.5024 141.281 18.9441 142.192 18.6124C143.104 18.2806 144.085 18.1862 145.044 18.3381C148.416 18.8549 155.564 25.7009 155.564 25.7009Z" fill="#FE6F61" stroke="#263238" stroke-width="0.438" stroke-linejoin="round"/>
<path d="M143.134 20.6989C143.134 20.6989 149.415 27.0981 150.9 33.7513C151.125 33.8147 151.333 33.9271 151.509 34.0805C151.685 34.2339 151.826 34.4245 151.919 34.6385C152.013 34.8526 152.058 35.0847 152.052 35.3183C152.045 35.5519 151.987 35.7812 151.881 35.9895C154.073 35.5137 156.361 35.7755 158.39 36.7341C158.39 36.7341 158.775 35.8055 159.287 35.7793C159.287 35.7793 156.528 27.3609 153.593 24.7898C151.573 22.972 149.303 21.4528 146.853 20.2784C145.785 19.7904 144.589 19.6583 143.441 19.9018C143.441 19.9018 144.54 20.8654 143.134 20.6989ZM150.002 25.1578C150.654 24.6628 152.034 25.3724 153.068 26.7477C154.102 28.123 154.426 29.6385 153.769 30.1378C153.112 30.6371 151.736 29.9232 150.703 28.5479C149.669 27.1726 149.358 25.6571 150.002 25.1578Z" fill="white" stroke="#263238" stroke-width="0.438" stroke-miterlimit="10"/>
<path d="M156.576 26.5725C156.576 26.5725 153.677 22.7181 150.646 20.9004C148.883 19.8335 147.003 18.9738 145.044 18.3381C145.044 18.3381 146.415 18.3907 147.453 20.4712C148.044 21.6626 147.847 23.4014 147.847 23.4014C150.889 24.05 153.827 25.1172 156.576 26.5725Z" fill="#FE6F61" stroke="#263238" stroke-width="0.438" stroke-linejoin="round"/>
<path d="M42.2188 14.6589L44.3344 22.4115C44.3344 22.4115 33.761 30.243 17.7872 28.0486L18.6632 19.6697C18.6632 19.6697 24.9266 20.9223 30.6425 19.7485C36.3584 18.5747 42.2188 14.6589 42.2188 14.6589Z" fill="#FE6F61" stroke="#263238" stroke-width="0.438" stroke-miterlimit="10"/>
<path d="M41.0099 22.0698C41.032 21.8792 41.1118 21.6999 41.2386 21.5558C41.3654 21.4118 41.5332 21.31 41.7195 21.2639L40.4712 17.8169C40.2891 17.8778 40.0982 17.9089 39.9062 17.9088C39.5757 17.9143 39.2521 17.8146 38.982 17.6241C37.23 18.5439 33.9406 20.147 30.66 20.8259C27.6717 21.3621 24.6241 21.4859 21.6022 21.1938C21.4851 21.3192 21.3411 21.4164 21.181 21.4778C21.0209 21.5393 20.8488 21.5635 20.678 21.5486L20.2619 26.244C20.367 26.244 20.4765 26.244 20.586 26.244C21.462 26.244 22.1497 26.5068 22.1497 26.8309C22.1442 26.8829 22.1267 26.9329 22.0986 26.977C22.0704 27.0211 22.0325 27.0581 21.9876 27.0849C32.1361 27.4704 39.2404 23.962 41.3954 22.7356C41.281 22.6653 41.1859 22.5676 41.1186 22.4514C41.0513 22.3352 41.014 22.2041 41.0099 22.0698ZM30.9666 24.5183C29.4161 24.8292 28.0583 24.5664 27.9313 23.9313C27.8042 23.2962 28.9562 22.5341 30.5067 22.2231C32.0572 21.9122 33.415 22.175 33.542 22.8101C33.6691 23.4452 32.5171 24.2073 30.9666 24.5183Z" fill="white" stroke="#263238" stroke-width="0.438" stroke-miterlimit="10"/>
<path d="M184.871 187.305L186.982 195.058C186.982 195.058 176.413 202.889 160.435 200.695L161.311 192.316C161.311 192.316 167.574 193.569 173.295 192.395C179.015 191.221 184.871 187.305 184.871 187.305Z" fill="#FE6F61" stroke="#263238" stroke-width="0.438" stroke-miterlimit="10"/>
<path d="M183.658 194.721C183.679 194.529 183.758 194.349 183.885 194.204C184.012 194.059 184.18 193.957 184.367 193.91L183.119 190.472C182.936 190.53 182.746 190.559 182.554 190.56C182.217 190.569 181.886 190.471 181.608 190.279C179.895 191.195 176.588 192.798 173.312 193.477C170.324 194.013 167.276 194.137 164.254 193.845C164.137 193.97 163.993 194.067 163.833 194.129C163.673 194.19 163.501 194.214 163.33 194.2L162.936 198.895C163.041 198.895 163.151 198.895 163.265 198.895C164.141 198.895 164.824 199.153 164.824 199.477C164.818 199.529 164.801 199.579 164.773 199.624C164.745 199.668 164.707 199.705 164.662 199.731C174.81 200.121 181.915 196.613 184.074 195.382C183.954 195.316 183.854 195.221 183.781 195.105C183.708 194.989 183.666 194.857 183.658 194.721ZM173.614 197.165C172.064 197.476 170.706 197.213 170.579 196.582C170.452 195.952 171.604 195.181 173.155 194.87C174.705 194.559 176.063 194.826 176.19 195.457C176.317 196.087 175.165 196.858 173.614 197.165Z" fill="white" stroke="#263238" stroke-width="0.438" stroke-miterlimit="10"/>
<path d="M74.1271 24.5402C74.1271 24.5402 82.2564 21.864 87.0174 18.6885L92.0763 27.0105C92.0763 27.0105 79.9788 36.4406 76.8033 33.9615L74.1271 24.5402Z" fill="#FE6F61" stroke="#263238" stroke-width="0.438" stroke-linejoin="round"/>
<path d="M88.603 26.5244C88.6142 26.284 88.7031 26.0537 88.8564 25.8681C89.0096 25.6826 89.2188 25.5517 89.4527 25.4951L87.2014 21.7677C87.0155 21.832 86.82 21.8646 86.6232 21.864C86.3825 21.877 86.1423 21.8311 85.9232 21.7303C85.7042 21.6296 85.513 21.4771 85.3662 21.2859C81.1658 24.2249 74.7228 25.7316 74.7228 25.7316L76.0105 30.7905C76.0105 30.7905 75.8134 33.5674 79.2824 32.871C81.9673 32.3322 87.0262 28.929 89.1812 27.4442C89.0114 27.3565 88.8682 27.225 88.7665 27.0632C88.6648 26.9014 88.6083 26.7154 88.603 26.5244ZM79.9394 30.2474C78.4195 30.5934 77.0004 30.0766 76.777 29.0911C76.5536 28.1056 77.6004 27.0193 79.1203 26.6689C80.6402 26.3185 82.0593 26.8397 82.287 27.8296C82.5148 28.8195 81.468 29.897 79.9394 30.2474Z" fill="white" stroke="#263238" stroke-width="0.438" stroke-miterlimit="10"/>
<path d="M72.9358 20.7734L78.4896 31.7804C78.4896 31.7804 76.6062 32.7703 76.8033 33.9704L71.4465 23.4584C71.4465 23.4584 70.7545 21.7633 72.9358 20.7734Z" fill="#FE6F61" stroke="#263238" stroke-width="0.438" stroke-linejoin="round"/>
<path d="M71.924 24.3825L76.0456 32.4767C76.2211 32.0878 76.5326 31.7763 76.9216 31.6007L72.3401 23.5503L71.924 24.3825Z" fill="white" stroke="#263238" stroke-width="0.438" stroke-miterlimit="10"/>
<path d="M142.135 73.3597L126.779 88.716L134.794 96.727L150.558 81.1518L142.135 73.3597Z" fill="#FE6F61" stroke="#263238" stroke-width="0.438" stroke-miterlimit="10"/>
<path d="M134.527 93.4989C134.649 93.3896 134.792 93.3061 134.947 93.2532C135.103 93.2003 135.267 93.1792 135.43 93.191C135.594 93.2029 135.753 93.2475 135.899 93.3222C136.045 93.3969 136.174 93.5002 136.279 93.6259C136.311 93.6757 136.337 93.7285 136.358 93.7836L148.088 82.124C147.953 82.1183 147.82 82.0813 147.702 82.0159C147.583 81.9506 147.482 81.8587 147.405 81.7473C147.299 81.5719 147.247 81.3695 147.254 81.1648C147.262 80.9602 147.33 80.7623 147.448 80.5954L142.42 75.9395C142.335 76.0536 142.233 76.154 142.118 76.2373C141.92 76.4038 141.672 76.4988 141.414 76.5067C141.155 76.5147 140.902 76.4352 140.694 76.2811L129.801 87.0515C129.965 87.1213 130.106 87.235 130.209 87.38C130.353 87.6366 130.402 87.9356 130.347 88.2247C130.293 88.5139 130.138 88.7746 129.911 88.9612L134.466 93.5383L134.527 93.4989ZM135.925 86.8062C135.202 85.7463 135.635 84.152 136.893 83.2365C138.15 82.3211 139.757 82.4438 140.48 83.4993C141.202 84.5549 140.773 86.1536 139.512 87.069C138.25 87.9845 136.656 87.8618 135.925 86.8062Z" fill="white" stroke="#263238" stroke-width="0.438" stroke-miterlimit="10"/>
<path d="M170.207 110.826L191.191 113.016L192.33 102.066L170.934 99.7054L170.207 110.826Z" fill="#FE6F61" stroke="#263238" stroke-width="0.438" stroke-miterlimit="10"/>
<path d="M190.057 104.243C189.902 104.217 189.753 104.16 189.62 104.075C189.487 103.991 189.372 103.881 189.282 103.752C189.192 103.622 189.128 103.477 189.095 103.323C189.062 103.169 189.06 103.009 189.089 102.855C189.108 102.8 189.131 102.747 189.159 102.697L173.185 100.984C173.263 101.091 173.315 101.214 173.339 101.343C173.362 101.473 173.356 101.606 173.321 101.733C173.255 101.917 173.137 102.078 172.981 102.196C172.826 102.314 172.64 102.384 172.445 102.399L172.007 109.044C172.146 109.039 172.284 109.054 172.419 109.087C172.665 109.137 172.887 109.267 173.051 109.458C173.214 109.648 173.309 109.888 173.321 110.139L188.112 111.764C188.064 111.598 188.064 111.421 188.112 111.255C188.218 110.99 188.413 110.769 188.665 110.633C188.916 110.497 189.207 110.454 189.488 110.511L190.136 104.256L190.057 104.243ZM184.153 107.309C183.798 108.5 182.331 109.153 180.872 108.763C179.414 108.373 178.516 107.086 178.87 105.894C179.225 104.703 180.697 104.05 182.155 104.44C183.614 104.83 184.507 106.091 184.153 107.287V107.309Z" fill="white" stroke="#263238" stroke-width="0.438" stroke-miterlimit="10"/>
<path d="M194.113 130.655C194.113 130.655 195.427 131.001 197.118 135.035C198.808 139.069 200.424 144.342 200.424 144.342C200.424 144.342 196.671 142.739 194.555 142.629C192.229 142.511 188.861 143.505 188.861 143.505C188.861 143.505 187.547 129.765 178.397 125.188C179.037 124.462 179.85 123.91 180.761 123.583C181.671 123.257 182.65 123.167 183.605 123.322C186.96 123.809 194.113 130.655 194.113 130.655Z" fill="#FE6F61" stroke="#263238" stroke-width="0.438" stroke-linejoin="round"/>
<path d="M181.678 125.648C181.678 125.648 187.963 132.034 189.448 138.705C189.673 138.767 189.882 138.878 190.059 139.031C190.236 139.184 190.376 139.374 190.47 139.588C190.564 139.802 190.609 140.035 190.602 140.268C190.595 140.502 190.536 140.731 190.429 140.939C192.619 140.46 194.906 140.719 196.934 141.674C196.934 141.674 197.323 140.746 197.831 140.72C197.831 140.72 195.076 132.301 192.137 129.73C190.121 127.909 187.854 126.387 185.405 125.21C184.338 124.722 183.142 124.59 181.993 124.833C181.993 124.833 183.084 125.819 181.678 125.648ZM188.546 130.107C189.203 129.612 190.578 130.322 191.612 131.697C192.646 133.072 192.97 134.588 192.313 135.087C191.656 135.586 190.28 134.872 189.247 133.497C188.213 132.122 187.902 130.611 188.546 130.111V130.107Z" fill="white" stroke="#263238" stroke-width="0.438" stroke-miterlimit="10"/>
<path d="M195.12 131.526C195.12 131.526 192.221 127.659 189.194 125.854C187.43 124.793 185.548 123.939 183.588 123.309C183.588 123.309 184.963 123.362 185.997 125.442C186.592 126.634 186.391 128.372 186.391 128.372C189.433 129.015 192.37 130.076 195.12 131.526Z" fill="#FE6F61" stroke="#263238" stroke-width="0.438" stroke-linejoin="round"/>
<path d="M183.96 80.0217C183.96 80.0217 176.869 84.8178 173.155 89.1715L166.002 82.5402C166.002 82.5402 175.064 70.1711 178.796 71.6909L183.96 80.0217Z" fill="#FE6F61" stroke="#263238" stroke-width="0.438" stroke-linejoin="round"/>
<path d="M169.506 82.0715C169.561 82.3049 169.539 82.5501 169.443 82.7698C169.346 82.9895 169.181 83.1718 168.972 83.2891L172.152 86.2632C172.315 86.1513 172.495 86.067 172.686 86.0135C172.914 85.9351 173.157 85.9132 173.395 85.9498C173.633 85.9865 173.859 86.0805 174.052 86.2237C177.294 82.2511 183.08 79.0405 183.08 79.0405L180.452 74.5247C180.452 74.5247 179.882 71.8004 176.733 73.4166C174.298 74.6693 170.356 79.3077 168.696 81.3444C168.884 81.3814 169.058 81.4685 169.201 81.5965C169.343 81.7245 169.449 81.8886 169.506 82.0715ZM176.825 76.1234C178.192 75.3701 179.698 75.484 180.184 76.3687C180.671 77.2535 179.957 78.5894 178.59 79.3384C177.224 80.0874 175.717 79.9778 175.226 79.0887C174.736 78.1996 175.441 76.8724 176.812 76.1234H176.825Z" fill="white" stroke="#263238" stroke-width="0.438" stroke-miterlimit="10"/>
<path d="M186.15 83.3198L177.802 74.2488C177.802 74.2488 179.343 72.7815 178.827 71.6909L186.851 80.337C186.851 80.337 187.963 81.7693 186.15 83.3198Z" fill="#FE6F61" stroke="#263238" stroke-width="0.438" stroke-linejoin="round"/>
<path d="M186.124 79.5706L179.948 72.913C179.891 73.336 179.685 73.7247 179.365 74.008L185.935 80.486L186.124 79.5706Z" fill="white" stroke="#263238" stroke-width="0.438" stroke-miterlimit="10"/>
<path d="M4.23108 203.691H213.744" stroke="#263238" stroke-width="0.438" stroke-linecap="round" stroke-linejoin="round"/>
</svg>
