<svg width="20" height="17" viewBox="0 0 20 17" fill="none" xmlns="http://www.w3.org/2000/svg">
<path d="M7.46811 14.7591L7.96338 14.1308L7.46811 14.7591ZM10 3.58386L9.42361 4.13863C9.57443 4.29532 9.78253 4.38386 10 4.38386C10.2175 4.38386 10.4256 4.29532 10.5764 4.13863L10 3.58386ZM12.5319 14.7591L13.0272 15.3873L12.5319 14.7591ZM7.96338 14.1308C6.68995 13.1269 5.32824 12.1688 4.24609 10.9503C3.19137 9.76262 2.46667 8.3908 2.46667 6.61425H0.866672C0.866672 8.89014 1.81673 10.6243 3.04975 12.0127C4.25534 13.3702 5.79436 14.4583 6.97285 15.3873L7.96338 14.1308ZM2.46667 6.61425C2.46667 4.88733 3.44222 3.44822 4.75972 2.84599C6.02679 2.26681 7.75343 2.40337 9.42361 4.13863L10.5764 3.02909C8.49672 0.868378 6.05668 0.493912 4.09455 1.39081C2.18286 2.26465 0.866672 4.28872 0.866672 6.61425H2.46667ZM6.97285 15.3873C7.3981 15.7226 7.86575 16.0892 8.3424 16.3677C8.81879 16.6461 9.38025 16.8833 10 16.8833V15.2833C9.78643 15.2833 9.51456 15.1995 9.14964 14.9863C8.78498 14.7732 8.40335 14.4776 7.96338 14.1308L6.97285 15.3873ZM13.0272 15.3873C14.2057 14.4583 15.7447 13.3702 16.9503 12.0127C18.1833 10.6243 19.1333 8.89014 19.1333 6.61425H17.5333C17.5333 8.3908 16.8086 9.76262 15.7539 10.9503C14.6718 12.1688 13.3101 13.1269 12.0366 14.1308L13.0272 15.3873ZM19.1333 6.61425C19.1333 4.28872 17.8172 2.26465 15.9055 1.39081C13.9433 0.493912 11.5033 0.868378 9.42361 3.02909L10.5764 4.13863C12.2466 2.40337 13.9732 2.26681 15.2403 2.84599C16.5578 3.44822 17.5333 4.88733 17.5333 6.61425H19.1333ZM12.0366 14.1308C11.5967 14.4776 11.215 14.7732 10.8504 14.9863C10.4855 15.1995 10.2136 15.2833 10 15.2833V16.8833C10.6198 16.8833 11.1812 16.6461 11.6576 16.3677C12.1343 16.0892 12.6019 15.7226 13.0272 15.3873L12.0366 14.1308Z" fill="white"/>
</svg>
