<svg width="16" height="16" viewBox="0 0 16 16" fill="none" xmlns="http://www.w3.org/2000/svg">
<g filter="url(#filter0_d_2003_1949)">
<path fill-rule="evenodd" clip-rule="evenodd" d="M8.00008 0.833344C6.25118 0.833344 4.83341 2.25111 4.83341 4.00001C4.83341 5.74891 6.25118 7.16668 8.00008 7.16668C9.74898 7.16668 11.1667 5.74891 11.1667 4.00001C11.1667 2.25111 9.74898 0.833344 8.00008 0.833344ZM5.83341 4.00001C5.83341 2.80339 6.80346 1.83334 8.00008 1.83334C9.1967 1.83334 10.1667 2.80339 10.1667 4.00001C10.1667 5.19663 9.1967 6.16668 8.00008 6.16668C6.80346 6.16668 5.83341 5.19663 5.83341 4.00001Z" fill="#F2AF27"/>
<path d="M12.0001 2.16668C11.7239 2.16668 11.5001 2.39053 11.5001 2.66668C11.5001 2.94282 11.7239 3.16668 12.0001 3.16668C12.9177 3.16668 13.5001 3.7705 13.5001 4.33334C13.5001 4.89619 12.9177 5.50001 12.0001 5.50001C11.7239 5.50001 11.5001 5.72387 11.5001 6.00001C11.5001 6.27615 11.7239 6.50001 12.0001 6.50001C13.2916 6.50001 14.5001 5.61145 14.5001 4.33334C14.5001 3.05524 13.2916 2.16668 12.0001 2.16668Z" fill="#F2AF27"/>
<path d="M4.50008 2.66668C4.50008 2.39053 4.27622 2.16668 4.00008 2.16668C2.7086 2.16668 1.50008 3.05524 1.50008 4.33334C1.50008 5.61145 2.7086 6.50001 4.00008 6.50001C4.27622 6.50001 4.50008 6.27615 4.50008 6.00001C4.50008 5.72387 4.27622 5.50001 4.00008 5.50001C3.08242 5.50001 2.50008 4.89619 2.50008 4.33334C2.50008 3.7705 3.08242 3.16668 4.00008 3.16668C4.27622 3.16668 4.50008 2.94282 4.50008 2.66668Z" fill="#F2AF27"/>
<path fill-rule="evenodd" clip-rule="evenodd" d="M8.00008 8.16668C6.81057 8.16668 5.71105 8.4872 4.8943 9.0317C4.08105 9.57387 3.50008 10.3778 3.50008 11.3333C3.50008 12.2889 4.08105 13.0928 4.8943 13.635C5.71105 14.1795 6.81057 14.5 8.00008 14.5C9.1896 14.5 10.2891 14.1795 11.1059 13.635C11.9191 13.0928 12.5001 12.2889 12.5001 11.3333C12.5001 10.3778 11.9191 9.57387 11.1059 9.0317C10.2891 8.4872 9.1896 8.16668 8.00008 8.16668ZM4.50008 11.3333C4.50008 10.8162 4.81454 10.2867 5.449 9.86375C6.07998 9.4431 6.98046 9.16668 8.00008 9.16668C9.01971 9.16668 9.92019 9.4431 10.5512 9.86375C11.1856 10.2867 11.5001 10.8162 11.5001 11.3333C11.5001 11.8505 11.1856 12.38 10.5512 12.8029C9.92019 13.2236 9.01971 13.5 8.00008 13.5C6.98046 13.5 6.07998 13.2236 5.449 12.8029C4.81454 12.38 4.50008 11.8505 4.50008 11.3333Z" fill="#F2AF27"/>
<path d="M12.845 9.22624C12.9042 8.95651 13.1708 8.7858 13.4405 8.84495C14.0818 8.98557 14.6596 9.23958 15.0886 9.59063C15.5172 9.94137 15.8334 10.4235 15.8334 11C15.8334 11.5765 15.5172 12.0587 15.0886 12.4094C14.6596 12.7604 14.0818 13.0144 13.4405 13.1551C13.1708 13.2142 12.9042 13.0435 12.845 12.7738C12.7859 12.504 12.9566 12.2374 13.2263 12.1783C13.7546 12.0624 14.1767 11.8635 14.4553 11.6355C14.7343 11.4072 14.8334 11.1842 14.8334 11C14.8334 10.8158 14.7343 10.5928 14.4553 10.3645C14.1767 10.1366 13.7546 9.93758 13.2263 9.82174C12.9566 9.76259 12.7859 9.49597 12.845 9.22624Z" fill="#F2AF27"/>
<path d="M2.55965 8.84495C2.82938 8.7858 3.09599 8.95651 3.15514 9.22624C3.21429 9.49597 3.04358 9.76259 2.77385 9.82174C2.24561 9.93758 1.82345 10.1366 1.54483 10.3645C1.26583 10.5928 1.16675 10.8158 1.16675 11C1.16675 11.1842 1.26583 11.4072 1.54483 11.6355C1.82345 11.8635 2.24561 12.0624 2.77385 12.1783C3.04358 12.2374 3.21429 12.504 3.15514 12.7738C3.09599 13.0435 2.82938 13.2142 2.55965 13.1551C1.91839 13.0144 1.34055 12.7604 0.911543 12.4094C0.482914 12.0587 0.166748 11.5765 0.166748 11C0.166748 10.4235 0.482914 9.94137 0.911543 9.59063C1.34055 9.23958 1.91839 8.98557 2.55965 8.84495Z" fill="#F2AF27"/>
</g>
<defs>
<filter id="filter0_d_2003_1949" x="-3.83325" y="0.833344" width="23.6667" height="21.6667" filterUnits="userSpaceOnUse" color-interpolation-filters="sRGB">
<feFlood flood-opacity="0" result="BackgroundImageFix"/>
<feColorMatrix in="SourceAlpha" type="matrix" values="0 0 0 0 0 0 0 0 0 0 0 0 0 0 0 0 0 0 127 0" result="hardAlpha"/>
<feOffset dy="4"/>
<feGaussianBlur stdDeviation="2"/>
<feComposite in2="hardAlpha" operator="out"/>
<feColorMatrix type="matrix" values="0 0 0 0 0 0 0 0 0 0 0 0 0 0 0 0 0 0 0.25 0"/>
<feBlend mode="normal" in2="BackgroundImageFix" result="effect1_dropShadow_2003_1949"/>
<feBlend mode="normal" in="SourceGraphic" in2="effect1_dropShadow_2003_1949" result="shape"/>
</filter>
</defs>
</svg>
