<svg width="16" height="15" viewBox="0 0 16 15" fill="none" xmlns="http://www.w3.org/2000/svg">
<path fill-rule="evenodd" clip-rule="evenodd" d="M7.99999 0.833344C6.25109 0.833344 4.83332 2.25111 4.83332 4.00001C4.83332 5.74891 6.25109 7.16668 7.99999 7.16668C9.74889 7.16668 11.1667 5.74891 11.1667 4.00001C11.1667 2.25111 9.74889 0.833344 7.99999 0.833344ZM5.83332 4.00001C5.83332 2.80339 6.80337 1.83334 7.99999 1.83334C9.19661 1.83334 10.1667 2.80339 10.1667 4.00001C10.1667 5.19663 9.19661 6.16668 7.99999 6.16668C6.80337 6.16668 5.83332 5.19663 5.83332 4.00001Z" fill="#F2AF27"/>
<path d="M12 2.16668C11.7238 2.16668 11.5 2.39053 11.5 2.66668C11.5 2.94282 11.7238 3.16668 12 3.16668C12.9176 3.16668 13.5 3.7705 13.5 4.33334C13.5 4.89619 12.9176 5.50001 12 5.50001C11.7238 5.50001 11.5 5.72387 11.5 6.00001C11.5 6.27615 11.7238 6.50001 12 6.50001C13.2915 6.50001 14.5 5.61145 14.5 4.33334C14.5 3.05524 13.2915 2.16668 12 2.16668Z" fill="#F2AF27"/>
<path d="M4.49999 2.66668C4.49999 2.39053 4.27613 2.16668 3.99999 2.16668C2.70851 2.16668 1.49999 3.05524 1.49999 4.33334C1.49999 5.61145 2.70851 6.50001 3.99999 6.50001C4.27613 6.50001 4.49999 6.27615 4.49999 6.00001C4.49999 5.72387 4.27613 5.50001 3.99999 5.50001C3.08233 5.50001 2.49999 4.89619 2.49999 4.33334C2.49999 3.7705 3.08233 3.16668 3.99999 3.16668C4.27613 3.16668 4.49999 2.94282 4.49999 2.66668Z" fill="#F2AF27"/>
<path fill-rule="evenodd" clip-rule="evenodd" d="M7.99999 8.16668C6.81048 8.16668 5.71096 8.4872 4.89421 9.0317C4.08096 9.57387 3.49999 10.3778 3.49999 11.3333C3.49999 12.2889 4.08096 13.0928 4.89421 13.635C5.71096 14.1795 6.81048 14.5 7.99999 14.5C9.1895 14.5 10.289 14.1795 11.1058 13.635C11.919 13.0928 12.5 12.2889 12.5 11.3333C12.5 10.3778 11.919 9.57387 11.1058 9.0317C10.289 8.4872 9.1895 8.16668 7.99999 8.16668ZM4.49999 11.3333C4.49999 10.8162 4.81445 10.2867 5.44891 9.86375C6.07988 9.4431 6.98036 9.16668 7.99999 9.16668C9.01962 9.16668 9.9201 9.4431 10.5511 9.86375C11.1855 10.2867 11.5 10.8162 11.5 11.3333C11.5 11.8505 11.1855 12.38 10.5511 12.8029C9.9201 13.2236 9.01962 13.5 7.99999 13.5C6.98036 13.5 6.07988 13.2236 5.44891 12.8029C4.81445 12.38 4.49999 11.8505 4.49999 11.3333Z" fill="#F2AF27"/>
<path d="M12.8449 9.22624C12.9041 8.95651 13.1707 8.7858 13.4404 8.84495C14.0817 8.98557 14.6595 9.23958 15.0885 9.59063C15.5172 9.94137 15.8333 10.4235 15.8333 11C15.8333 11.5765 15.5172 12.0587 15.0885 12.4094C14.6595 12.7604 14.0817 13.0144 13.4404 13.1551C13.1707 13.2142 12.9041 13.0435 12.8449 12.7738C12.7858 12.504 12.9565 12.2374 13.2262 12.1783C13.7545 12.0624 14.1766 11.8635 14.4552 11.6355C14.7342 11.4072 14.8333 11.1842 14.8333 11C14.8333 10.8158 14.7342 10.5928 14.4552 10.3645C14.1766 10.1366 13.7545 9.93758 13.2262 9.82174C12.9565 9.76259 12.7858 9.49597 12.8449 9.22624Z" fill="#F2AF27"/>
<path d="M2.55955 8.84495C2.82929 8.7858 3.0959 8.95651 3.15505 9.22624C3.2142 9.49597 3.04349 9.76259 2.77376 9.82174C2.24552 9.93758 1.82336 10.1366 1.54474 10.3645C1.26574 10.5928 1.16666 10.8158 1.16666 11C1.16666 11.1842 1.26574 11.4072 1.54474 11.6355C1.82336 11.8635 2.24552 12.0624 2.77376 12.1783C3.04349 12.2374 3.2142 12.504 3.15505 12.7738C3.0959 13.0435 2.82929 13.2142 2.55955 13.1551C1.9183 13.0144 1.34046 12.7604 0.911452 12.4094C0.482822 12.0587 0.166656 11.5765 0.166656 11C0.166656 10.4235 0.482822 9.94137 0.911452 9.59063C1.34046 9.23958 1.9183 8.98557 2.55955 8.84495Z" fill="#F2AF27"/>
</svg>
