<svg width="219" height="203" viewBox="0 0 219 203" fill="none" xmlns="http://www.w3.org/2000/svg">
<path d="M206.263 123.484C199.816 140.755 186.641 159.448 168.1 164.98C140.068 173.346 136.739 195.93 86.5619 193.836C79.2352 193.563 71.9597 192.495 64.8634 190.652C61.3935 189.741 57.9861 188.607 54.6624 187.257C25.347 175.387 10.074 149.256 8.78624 121.912C7.1087 85.9521 32.2017 68.8131 48.5085 58.7742C64.8152 48.7352 84.4683 9.84957 133.813 11.5227C141.348 11.7455 148.832 12.8375 156.116 14.7771C172.721 19.2709 189.597 29.2311 199.404 43.742C200.14 44.8312 200.843 45.9466 201.515 47.0883C214.642 69.3563 215.058 99.9374 206.263 123.484Z" fill="#FE6F61"/>
<path opacity="0.7" d="M206.263 123.484C199.816 140.755 186.641 159.448 168.1 164.98C140.068 173.346 136.739 195.93 86.5619 193.836C79.2352 193.563 71.9597 192.495 64.8634 190.652C61.3935 189.741 57.9861 188.607 54.6624 187.257C25.347 175.387 10.074 149.256 8.78624 121.912C7.1087 85.9521 32.2017 68.8131 48.5085 58.7742C64.8152 48.7352 84.4683 9.84957 133.813 11.5227C141.348 11.7455 148.832 12.8375 156.116 14.7771C172.721 19.2709 189.597 29.2311 199.404 43.742C200.14 44.8312 200.843 45.9466 201.515 47.0883C214.642 69.3563 215.058 99.9374 206.263 123.484Z" fill="white"/>
<path d="M109.719 139.104C104.625 127.54 105.378 108.601 107.739 107.025C110.337 105.294 114.449 114.173 118.567 111.575C122.684 108.978 125.496 103.345 122.031 94.467C118.567 85.5888 114.02 91.4361 110.77 93.591C107.52 95.746 104.923 93.81 105.576 86.0136C106.053 80.2627 108.296 69.6938 109.443 64.5516C109.96 64.775 110.477 64.9896 110.985 65.2393C100.81 60.4739 89.5491 58.9584 84.7881 60.4739C80.027 61.9893 80.8899 62.423 83.2682 68.0513C88.2395 79.794 69.4186 83.8193 63.9962 74.7746C60.7506 69.3609 65.5248 66.3212 64.224 62.423C62.9231 58.5248 38.89 63.0712 35.8591 64.8057C35.8591 64.8057 41.702 82.3257 40.8391 88.6241C39.9763 94.9226 36.9409 97.7214 32.3945 93.1706C27.8481 88.6197 22.0008 92.7326 21.7818 100.319C21.5628 107.905 22.8636 113.958 28.0627 112.228C33.2617 110.498 37.3746 104.217 39.1047 112.228C40.8348 120.239 37.7907 130.624 36.0737 137.995C36.0737 137.995 49.7174 143.843 55.9939 143.409C62.2705 142.976 66.1731 142.761 64.224 138.863C62.2749 134.965 59.0249 132.367 61.4076 128.035C63.7903 123.704 73.3168 124.137 78.2969 125.219C83.277 126.301 85.4451 129.984 83.9296 134.097C82.4141 138.21 79.8124 142.327 84.5778 143.19C89.0673 144.009 100.486 142.13 111.734 138.469C111.068 138.683 110.376 138.893 109.719 139.104Z" stroke="#263238" stroke-width="0.438" stroke-miterlimit="10"/>
<path d="M113.801 137.777C113.135 138.004 112.465 138.215 111.8 138.447C112.465 138.228 113.135 138.004 113.801 137.777Z" stroke="#263238" stroke-width="0.438" stroke-miterlimit="10"/>
<path d="M192.838 91.2172C188.725 91.2172 188.506 94.4672 184.175 93.8189C179.843 93.1707 179.414 83.2062 183.96 65.6687C183.96 65.6687 178.98 69.3479 167.719 69.5669C156.458 69.7859 151.912 68.4806 154.728 64.3678C157.544 60.255 159.708 57.005 157.325 53.7595C154.942 50.5139 143.467 50.9431 139.805 53.7595C136.144 56.5758 138.723 59.8214 141.321 63.5006C143.918 67.1798 140.883 69.3479 136.555 69.5669C132.228 69.7859 121.181 70.0049 111.002 65.2351C110.494 64.9942 109.977 64.7708 109.461 64.5474C108.313 69.7027 106.07 80.2716 105.593 86.0094C104.94 93.8058 107.538 95.7549 110.788 93.5868C114.038 91.4187 118.584 85.5758 122.049 94.4628C125.513 103.35 122.697 108.969 118.584 111.571C114.471 114.173 110.337 105.295 107.748 107.025C105.387 108.601 104.634 127.541 109.728 139.104C111.09 138.666 112.452 138.228 113.81 137.79C125.719 133.673 137.628 131.723 139.796 134.54C141.965 137.356 141.11 136.923 138.281 141.254C135.451 145.586 135.679 149.265 140.445 151.429C145.21 153.593 156.9 153.181 157.965 148.184C159.029 143.186 152.985 140.387 155.801 135.622C158.617 130.856 183.522 137.777 183.522 137.777C183.522 137.777 177.894 118.719 180.057 112.438C182.221 106.157 183.96 107.69 187.425 110.056C190.889 112.421 195.436 112.224 197.17 105.295C198.905 98.3654 196.951 91.2172 192.838 91.2172Z" stroke="#263238" stroke-width="0.438" stroke-miterlimit="10"/>
<path d="M179.963 45.2908C185.475 42.6885 187.835 36.1102 185.232 30.5976C182.63 25.085 176.052 22.7258 170.539 25.328C165.027 27.9303 162.668 34.5086 165.27 40.0212C167.872 45.5337 174.45 47.893 179.963 45.2908Z" fill="#FE6F61" stroke="#263238" stroke-width="0.438" stroke-miterlimit="10"/>
<path d="M176.18 44.3548C181.166 43.843 184.793 39.3862 184.281 34.4002C183.769 29.4143 179.313 25.7872 174.327 26.2989C169.341 26.8106 165.713 31.2674 166.225 36.2534C166.737 41.2394 171.194 44.8665 176.18 44.3548Z" fill="white" stroke="#263238" stroke-width="0.438" stroke-miterlimit="10"/>
<path d="M178.092 41.2942C181.388 39.7262 182.789 35.7828 181.221 32.4865C179.653 29.1901 175.71 27.7891 172.413 29.3571C169.117 30.9251 167.716 34.8685 169.284 38.1648C170.852 41.4612 174.795 42.8622 178.092 41.2942Z" fill="#FE6F61" stroke="#263238" stroke-width="0.438" stroke-miterlimit="10"/>
<path d="M179.422 35.3193C179.422 34.4937 179.178 33.6867 178.719 33.0003C178.26 32.3138 177.608 31.7788 176.846 31.4629C176.083 31.147 175.244 31.0643 174.434 31.2253C173.624 31.3864 172.88 31.784 172.297 32.3677C171.713 32.9515 171.315 33.6952 171.154 34.5049C170.993 35.3147 171.076 36.1539 171.392 36.9167C171.708 37.6794 172.243 38.3313 172.929 38.79C173.616 39.2486 174.423 39.4934 175.248 39.4934C175.797 39.494 176.34 39.3864 176.846 39.1769C177.353 38.9673 177.813 38.6599 178.201 38.2721C178.589 37.8844 178.896 37.424 179.106 36.9173C179.315 36.4106 179.423 35.8676 179.422 35.3193Z" fill="white" stroke="#263238" stroke-width="0.438" stroke-miterlimit="10"/>
<path d="M177.184 35.3194C177.185 34.9363 177.072 34.5616 176.86 34.2426C176.648 33.9237 176.346 33.6749 175.992 33.5277C175.638 33.3805 175.249 33.3415 174.873 33.4157C174.497 33.4899 174.152 33.6739 173.881 33.9445C173.61 34.2151 173.425 34.56 173.35 34.9357C173.275 35.3113 173.313 35.7008 173.459 36.0548C173.606 36.4088 173.854 36.7115 174.172 36.9244C174.491 37.1373 174.865 37.2509 175.248 37.2509C175.761 37.251 176.253 37.0476 176.616 36.6855C176.979 36.3234 177.183 35.8321 177.184 35.3194Z" fill="#FE6F61" stroke="#263238" stroke-width="0.438" stroke-miterlimit="10"/>
<path d="M176.05 32.2928L175.253 35.3194L178.108 35.9458L176.05 32.2928Z" fill="#263238" stroke="#263238" stroke-width="0.438" stroke-miterlimit="10"/>
<path d="M177.267 33.9791L189.825 27.1376" stroke="#263238" stroke-width="0.876" stroke-miterlimit="10"/>
<path d="M185.795 29.3888L185.984 26.1082L191.883 22.7356V26.4805L185.795 29.3888Z" fill="#263238" stroke="#263238" stroke-width="0.438" stroke-miterlimit="10"/>
<path d="M194.415 28.2633L191.831 26.358L185.769 29.5423L188.69 31.233L194.415 28.2633Z" fill="#263238" stroke="#263238" stroke-width="0.438" stroke-miterlimit="10"/>
<path d="M117.388 35.9894H113V46.4401H117.388V35.9894Z" fill="#FE6F61" stroke="#263238" stroke-width="0.438" stroke-miterlimit="10"/>
<path d="M123.858 32.8228H119.469V46.4402H123.858V32.8228Z" fill="#FE6F61" stroke="#263238" stroke-width="0.438" stroke-miterlimit="10"/>
<path d="M130.327 35.9894H125.938V46.4401H130.327V35.9894Z" fill="#FE6F61" stroke="#263238" stroke-width="0.438" stroke-miterlimit="10"/>
<path d="M136.801 32.1353H132.412V46.4403H136.801V32.1353Z" fill="#FE6F61" stroke="#263238" stroke-width="0.438" stroke-miterlimit="10"/>
<path d="M143.27 26.9011H138.881V46.4403H143.27V26.9011Z" fill="#FE6F61" stroke="#263238" stroke-width="0.438" stroke-miterlimit="10"/>
<path d="M137.444 18.6228L139.157 19.3542L127.511 30.532L121.948 27.4967L113.135 32.8534V34.4696L121.983 29.091L127.738 32.2315L140.112 20.3529L140.773 22.0917L143.222 16.4109L137.444 18.6228Z" fill="#263238" stroke="#263238" stroke-width="0.438" stroke-linecap="round" stroke-linejoin="round"/>
<path d="M86.3477 46.0016C92.2823 44.6085 95.964 38.6683 94.571 32.7337C93.1779 26.7991 87.2377 23.1175 81.3031 24.5105C75.3685 25.9036 71.6868 31.8438 73.0799 37.7784C74.4729 43.713 80.4131 47.3946 86.3477 46.0016Z" fill="white" stroke="#263238" stroke-width="0.438" stroke-miterlimit="10"/>
<path d="M86.0073 44.8245C91.2899 43.6185 94.5947 38.3583 93.3887 33.0757C92.1827 27.793 86.9226 24.4882 81.6399 25.6943C76.3573 26.9003 73.0525 32.1604 74.2585 37.443C75.4645 42.7257 80.7246 46.0305 86.0073 44.8245Z" fill="#FE6F61" stroke="#263238" stroke-width="0.438" stroke-miterlimit="10"/>
<path d="M85.1744 44.0593C90.0055 43.3105 93.3149 38.7871 92.5662 33.956C91.8174 29.1248 87.294 25.8154 82.4629 26.5642C77.6317 27.3129 74.3223 31.8363 75.0711 36.6675C75.8198 41.4986 80.3432 44.808 85.1744 44.0593Z" fill="white" stroke="#263238" stroke-width="0.438" stroke-miterlimit="10"/>
<path d="M83.6887 42.8924V41.4864C83.252 41.5003 82.8175 41.4185 82.4157 41.2468C82.014 41.075 81.6546 40.8175 81.3629 40.4922C80.8461 39.8673 80.5687 38.9344 80.5307 37.6934L82.6638 37.3298C82.6708 37.7562 82.7237 38.1806 82.8215 38.5956C82.8788 38.8838 83.0171 39.1497 83.2201 39.3621C83.3088 39.4461 83.4134 39.5114 83.5277 39.5542C83.642 39.5971 83.7638 39.6167 83.8858 39.6118C84.01 39.6261 84.1357 39.6053 84.2487 39.5519C84.3617 39.4985 84.4575 39.4146 84.5253 39.3096C84.6455 39.0975 84.7061 38.8569 84.7005 38.6132C84.7206 38.149 84.5967 37.6901 84.3457 37.2992C84.0678 36.9073 83.7394 36.5539 83.369 36.248L82.0856 35.1486C81.8061 34.8889 81.5441 34.6109 81.3016 34.3164C81.0656 34.0263 80.8791 33.6993 80.7497 33.3484C80.6049 32.9349 80.5352 32.4988 80.5439 32.0607C80.5234 31.6598 80.5847 31.2589 80.724 30.8824C80.8633 30.5059 81.0777 30.1617 81.3542 29.8707C81.9478 29.3271 82.7177 29.0161 83.5223 28.9947V27.6106H84.2494V28.9596C84.7187 28.9668 85.1784 29.0935 85.5852 29.3276C85.9123 29.5353 86.1807 29.8233 86.3649 30.1641C86.5491 30.5001 86.682 30.8619 86.7591 31.2372C86.8371 31.6096 86.8869 31.9874 86.908 32.3673L84.7487 32.6826C84.7437 32.3508 84.7129 32.0198 84.6567 31.6928C84.6259 31.4482 84.5323 31.2159 84.3851 31.0182C84.3098 30.9351 84.2155 30.8713 84.1103 30.8324C84.0051 30.7935 83.892 30.7806 83.7807 30.7949C83.6542 30.7929 83.5293 30.8223 83.4169 30.8804C83.3046 30.9385 83.2084 31.0234 83.1368 31.1277C82.9923 31.3359 82.9157 31.5838 82.9178 31.8373C82.8981 32.2367 83.0155 32.6308 83.2507 32.9542C83.4809 33.2471 83.7343 33.521 84.0085 33.7733L85.2611 34.8595C85.5935 35.1627 85.9025 35.4907 86.1853 35.8406C86.4676 36.1967 86.6963 36.5922 86.8642 37.0145C87.0434 37.4841 87.1311 37.9836 87.1226 38.4861C87.1293 38.9914 87.0167 39.4911 86.7941 39.9447C86.5779 40.3718 86.2512 40.7333 85.8481 40.9915C85.4136 41.2693 84.9169 41.4348 84.4026 41.4733V42.8924H83.6887Z" fill="#263238"/>
<path d="M48.0529 26.713H27.5589V45.9806H48.0529V26.713Z" fill="white" stroke="#263238" stroke-width="0.438" stroke-miterlimit="10"/>
<path d="M48.0529 26.713H27.5589V31.6668H48.0529V26.713Z" fill="#FE6F61" stroke="#263238" stroke-width="0.438" stroke-linecap="round" stroke-linejoin="round"/>
<path d="M31.6761 34.4174H29.2233V36.8702H31.6761V34.4174Z" fill="#FE6F61" stroke="#263238" stroke-width="0.438" stroke-linecap="round" stroke-linejoin="round"/>
<path d="M35.3553 34.4174H32.9025V36.8702H35.3553V34.4174Z" fill="#FE6F61" stroke="#263238" stroke-width="0.438" stroke-linecap="round" stroke-linejoin="round"/>
<path d="M39.0301 34.4174H36.5773V36.8702H39.0301V34.4174Z" fill="#FE6F61" stroke="#263238" stroke-width="0.438" stroke-linecap="round" stroke-linejoin="round"/>
<path d="M42.7093 34.4174H40.2565V36.8702H42.7093V34.4174Z" fill="#FE6F61" stroke="#263238" stroke-width="0.438" stroke-linecap="round" stroke-linejoin="round"/>
<path d="M46.3886 34.4174H43.9358V36.8702H46.3886V34.4174Z" fill="#FE6F61" stroke="#263238" stroke-width="0.438" stroke-linecap="round" stroke-linejoin="round"/>
<path d="M31.6761 38.2717H29.2233V40.7245H31.6761V38.2717Z" fill="#FE6F61" stroke="#263238" stroke-width="0.438" stroke-linecap="round" stroke-linejoin="round"/>
<path d="M35.3553 38.2717H32.9025V40.7245H35.3553V38.2717Z" fill="#FE6F61" stroke="#263238" stroke-width="0.438" stroke-linecap="round" stroke-linejoin="round"/>
<path d="M39.0301 38.2717H36.5773V40.7245H39.0301V38.2717Z" fill="#FE6F61" stroke="#263238" stroke-width="0.438" stroke-linecap="round" stroke-linejoin="round"/>
<path d="M42.7093 38.2717H40.2565V40.7245H42.7093V38.2717Z" fill="#FE6F61" stroke="#263238" stroke-width="0.438" stroke-linecap="round" stroke-linejoin="round"/>
<path d="M46.3886 38.2717H43.9358V40.7245H46.3886V38.2717Z" fill="#FE6F61" stroke="#263238" stroke-width="0.438" stroke-linecap="round" stroke-linejoin="round"/>
<path d="M31.6761 42.1261H29.2233V44.5789H31.6761V42.1261Z" fill="#FE6F61" stroke="#263238" stroke-width="0.438" stroke-linecap="round" stroke-linejoin="round"/>
<path d="M35.3553 42.1261H32.9025V44.5789H35.3553V42.1261Z" fill="#FE6F61" stroke="#263238" stroke-width="0.438" stroke-linecap="round" stroke-linejoin="round"/>
<path d="M39.0301 42.1261H36.5773V44.5789H39.0301V42.1261Z" fill="#FE6F61" stroke="#263238" stroke-width="0.438" stroke-linecap="round" stroke-linejoin="round"/>
<path d="M42.7093 42.1261H40.2565V44.5789H42.7093V42.1261Z" fill="#FE6F61" stroke="#263238" stroke-width="0.438" stroke-linecap="round" stroke-linejoin="round"/>
<path d="M46.3886 42.1261H43.9358V44.5789H46.3886V42.1261Z" fill="#FE6F61" stroke="#263238" stroke-width="0.438" stroke-linecap="round" stroke-linejoin="round"/>
<path d="M32.1142 23.5593H30.3622V28.2897H32.1142V23.5593Z" fill="#263238"/>
<path d="M36.4942 23.5593H34.7422V28.2897H36.4942V23.5593Z" fill="#263238"/>
<path d="M40.8697 23.5593H39.1177V28.2897H40.8697V23.5593Z" fill="#263238"/>
<path d="M45.2497 23.5593H43.4977V28.2897H45.2497V23.5593Z" fill="#263238"/>
<path d="M9.73674 170.64C10.6872 171.056 13.013 171.003 13.013 171.003C13.013 171.003 12.5137 169.483 12.4699 169.391C11.9574 168.323 10.3456 166.562 9.03156 166.737C8.81428 166.773 8.60695 166.854 8.42306 166.975C8.23916 167.096 8.08284 167.254 7.96425 167.44C7.84567 167.625 7.76748 167.834 7.73479 168.052C7.7021 168.269 7.71563 168.491 7.7745 168.704C7.9935 169.61 8.92644 170.289 9.73674 170.64Z" fill="#FE6F61"/>
<path d="M10.5382 177.381C11.5237 177.521 13.6042 176.921 13.7663 176.872C14.1066 178.06 14.5266 179.223 15.0234 180.355C15.3081 181.016 15.619 181.669 15.9344 182.33C15.7461 182.05 15.5752 181.804 15.5446 181.774C14.7737 180.876 12.7501 179.584 11.5325 180.122C11.3321 180.213 11.1532 180.346 11.0074 180.511C10.8617 180.675 10.7523 180.869 10.6866 181.079C10.6209 181.289 10.6002 181.511 10.626 181.729C10.6517 181.948 10.7233 182.158 10.8361 182.347C11.2741 183.167 12.3647 183.574 13.2407 183.701C14.1167 183.828 15.9081 183.355 16.3768 183.219C16.4994 183.469 16.6221 183.723 16.7491 183.972C17.3491 185.168 17.9536 186.36 18.5011 187.547C18.6982 187.963 18.8778 188.383 19.0573 188.804C18.8865 188.554 18.7464 188.366 18.7201 188.322C17.9448 187.446 15.9213 186.154 14.7036 186.671C14.5043 186.763 14.3267 186.897 14.1822 187.063C14.0377 187.228 13.9296 187.422 13.8648 187.633C13.8 187.843 13.7799 188.064 13.806 188.282C13.832 188.501 13.9036 188.711 14.016 188.9C14.454 189.719 15.549 190.122 16.4206 190.249C17.2922 190.376 18.9172 189.947 19.4866 189.811C19.6574 190.249 19.8282 190.687 19.9771 191.125C20.0691 191.418 20.183 191.699 20.2575 192.001C20.3319 192.303 20.4239 192.588 20.5027 192.877C20.6385 193.442 20.7831 194.025 20.9013 194.581C20.9889 194.966 21.0634 195.339 21.1378 195.706C20.9451 195.29 20.5553 194.48 20.5159 194.414C19.8852 193.411 18.0806 191.848 16.7973 192.172C16.5891 192.233 16.3957 192.336 16.2293 192.475C16.0629 192.614 15.9271 192.786 15.8304 192.98C15.7338 193.175 15.6783 193.387 15.6676 193.603C15.6568 193.82 15.691 194.036 15.768 194.239C16.0877 195.115 17.082 195.685 17.958 195.943C18.8865 196.223 20.9451 195.965 21.2035 195.943C21.3262 196.561 21.4401 197.161 21.5408 197.726C21.7598 198.983 21.9262 200.104 22.0533 201.054H22.9293C22.776 200.069 22.5789 198.899 22.3161 197.585C22.1934 196.959 22.0489 196.293 21.8781 195.61C22.499 195.362 23.1045 195.077 23.6914 194.756C24.3703 195.492 26.1048 196.35 26.3194 196.46C26.0829 197.042 25.8463 197.607 25.6142 198.133C25.1324 199.241 24.6769 200.222 24.2739 201.054H25.2156C25.5616 200.284 25.9427 199.408 26.3369 198.426C26.5822 197.835 26.8275 197.2 27.0771 196.547C27.3268 196.6 29.3635 197.012 30.3139 196.797C31.1899 196.604 32.2192 196.118 32.6091 195.264C32.7059 195.066 32.7599 194.85 32.7677 194.629C32.7754 194.409 32.7367 194.189 32.6541 193.985C32.5715 193.78 32.4468 193.596 32.2881 193.442C32.1295 193.289 31.9403 193.171 31.7331 193.096C30.476 192.658 28.5619 194.103 27.8568 195.054C27.8173 195.111 27.4188 195.768 27.1998 196.188C27.3005 195.921 27.4012 195.663 27.4976 195.387C27.6991 194.839 27.883 194.287 28.0845 193.696L28.3473 192.82C28.4393 192.527 28.5006 192.211 28.5838 191.9C28.7547 191.186 28.8904 190.45 29.0218 189.71C29.5036 189.885 31.2118 190.481 32.0878 190.415C32.9638 190.35 34.0764 190.03 34.5844 189.246C34.7115 189.066 34.7992 188.861 34.8416 188.645C34.884 188.429 34.8803 188.206 34.8307 187.992C34.7811 187.777 34.6866 187.575 34.5536 187.4C34.4206 187.224 34.252 187.079 34.0588 186.973C32.8806 186.368 30.7695 187.485 29.9329 188.322C29.8803 188.374 29.346 189.04 29.0569 189.412C29.127 188.974 29.2014 188.536 29.2584 188.063C29.4204 186.749 29.5431 185.413 29.6964 184.082C29.7358 183.675 29.7796 183.267 29.8234 182.86C29.9942 182.926 32.0134 183.675 33.0033 183.609C33.8793 183.543 34.9874 183.223 35.4999 182.439C35.6263 182.259 35.7133 182.055 35.7554 181.839C35.7974 181.623 35.7935 181.4 35.744 181.186C35.6944 180.971 35.6002 180.77 35.4676 180.594C35.335 180.418 35.1669 180.273 34.9743 180.166C33.796 179.557 31.6849 180.674 30.8439 181.511C30.7826 181.572 30.0161 182.536 29.8321 182.79C29.9241 181.892 30.0292 181.003 30.165 180.127C30.3452 178.944 30.5997 177.774 30.9271 176.623C31.006 176.653 33.1171 177.446 34.1245 177.376C35.0005 177.315 36.1131 176.991 36.6211 176.207C36.7475 176.027 36.8346 175.822 36.8767 175.606C36.9187 175.39 36.9148 175.167 36.8652 174.953C36.8157 174.738 36.7215 174.537 36.5889 174.361C36.4563 174.186 36.2882 174.04 36.0955 173.933C34.9173 173.325 32.8062 174.446 31.9696 175.278C31.9039 175.344 31.0936 176.378 30.9403 176.592C30.9403 176.526 30.9753 176.456 30.9928 176.391C31.3556 175.248 31.8203 174.139 32.3813 173.079C32.6791 172.488 33.0033 171.941 33.3274 171.419C33.7041 171.608 35.4298 172.444 36.354 172.484C37.2781 172.523 38.3688 172.317 38.982 171.608C39.1278 171.443 39.2372 171.249 39.3028 171.038C39.3685 170.828 39.389 170.606 39.3629 170.387C39.3369 170.169 39.2649 169.958 39.1517 169.769C39.0385 169.58 38.8866 169.417 38.706 169.291C37.6023 168.555 35.3816 169.44 34.4574 170.167C34.4049 170.206 33.9406 170.67 33.6077 171.012C33.7566 170.78 33.9055 170.535 34.0457 170.311C34.5976 169.479 35.1582 168.748 35.6575 168.121C35.9466 167.758 36.2138 167.438 36.4678 167.136C36.9321 167.136 38.8068 167.07 39.6258 166.698C40.4449 166.325 41.3428 165.625 41.5355 164.709C41.5886 164.495 41.5959 164.272 41.5571 164.055C41.5182 163.838 41.434 163.632 41.31 163.45C41.1861 163.268 41.025 163.114 40.8375 162.998C40.6499 162.882 40.44 162.807 40.2215 162.778C38.9075 162.637 37.3395 164.442 36.8577 165.524C36.8182 165.616 36.3364 167.153 36.3583 167.153H36.354C36.1043 167.438 35.8371 167.745 35.5568 168.086C35.04 168.717 34.4662 169.44 33.8924 170.276C33.2533 171.158 32.6682 172.078 32.1404 173.031C31.5504 174.092 31.0564 175.203 30.6643 176.351V176.395C30.6643 176.005 30.6643 174.919 30.6643 174.836C30.511 173.662 29.5255 171.485 28.2247 171.244C28.0071 171.21 27.7847 171.222 27.5721 171.28C27.3595 171.337 27.1614 171.439 26.9907 171.578C26.8201 171.718 26.6807 171.891 26.5816 172.088C26.4825 172.285 26.426 172.5 26.4157 172.72C26.3413 173.653 27.0158 174.586 27.6728 175.173C28.4174 175.839 30.4804 176.487 30.6468 176.531C30.2748 177.71 29.9821 178.913 29.7708 180.131C29.6438 180.841 29.5387 181.559 29.4423 182.277C29.4423 181.945 29.4423 181.642 29.4423 181.603C29.289 180.429 28.3035 178.252 27.0027 178.011C26.7854 177.977 26.5634 177.989 26.3511 178.047C26.1388 178.104 25.9409 178.205 25.7703 178.344C25.5997 178.483 25.4602 178.656 25.3609 178.852C25.2615 179.048 25.2046 179.263 25.1937 179.483C25.1193 180.416 25.7938 181.349 26.4508 181.94C27.1078 182.531 28.8685 183.118 29.3328 183.254L29.2277 184.086C29.07 185.4 28.9167 186.741 28.7284 188.028C28.6627 188.466 28.5795 188.931 28.4962 189.382C28.4962 189.084 28.4962 188.83 28.4962 188.795C28.3429 187.621 27.3618 185.44 26.0566 185.199C25.8391 185.165 25.617 185.178 25.4046 185.236C25.1923 185.294 24.9945 185.396 24.824 185.535C24.6535 185.674 24.5141 185.847 24.4148 186.044C24.3155 186.24 24.2586 186.455 24.2476 186.675C24.1732 187.608 24.8477 188.541 25.5091 189.128C26.1705 189.715 27.7516 190.253 28.3035 190.442C28.2072 190.88 28.1108 191.353 27.9969 191.795C27.9137 192.089 27.8524 192.382 27.7516 192.671C27.6509 192.96 27.5633 193.258 27.4713 193.547C27.2698 194.095 27.0684 194.66 26.8625 195.19L26.4245 196.258C26.4946 195.82 26.6172 194.914 26.6172 194.835C26.6012 193.795 26.3208 192.776 25.8025 191.874C25.8113 191.759 25.8113 191.643 25.8025 191.528C25.7724 191.311 25.6974 191.103 25.5822 190.917C25.467 190.731 25.3142 190.571 25.1336 190.447C24.9531 190.323 24.7486 190.239 24.5335 190.199C24.3183 190.158 24.0971 190.164 23.8841 190.214C22.6051 190.556 21.7905 192.803 21.7291 193.985C21.7291 194.055 21.7729 194.817 21.808 195.299C21.7467 195.019 21.6853 194.752 21.6153 194.463C21.4795 193.898 21.3306 193.337 21.1773 192.732C21.0897 192.443 20.9977 192.15 20.9101 191.856C20.8225 191.563 20.7042 191.261 20.5991 190.959C20.3494 190.267 20.056 189.579 19.7494 188.891C20.2443 188.773 22.0007 188.326 22.7015 187.783C23.4023 187.24 24.1469 186.364 24.1425 185.431C24.1481 185.211 24.1074 184.992 24.023 184.789C23.9386 184.585 23.8124 184.402 23.6526 184.25C23.4928 184.099 23.303 183.982 23.0954 183.909C22.8877 183.835 22.667 183.806 22.4475 183.824C21.1335 183.968 19.9859 186.066 19.7494 187.227C19.7494 187.297 19.6574 188.147 19.6224 188.615C19.434 188.204 19.2457 187.792 19.0442 187.38C18.4529 186.197 17.8222 185.015 17.1958 183.832L16.6264 182.746C16.806 182.702 18.8997 182.216 19.6924 181.612C20.3976 181.073 21.1378 180.193 21.1335 179.26C21.139 179.039 21.0983 178.821 21.0139 178.617C20.9295 178.414 20.8033 178.23 20.6435 178.079C20.4837 177.927 20.2939 177.811 20.0863 177.737C19.8787 177.664 19.658 177.635 19.4384 177.652C18.1244 177.797 16.9768 179.895 16.7403 181.055C16.7403 181.143 16.6089 182.369 16.6002 182.68C16.1622 181.879 15.7767 181.082 15.4088 180.276C14.8972 179.192 14.4583 178.076 14.0948 176.934C14.178 176.934 16.368 176.417 17.1608 175.799C17.8616 175.261 18.6062 174.38 18.5974 173.447C18.6037 173.227 18.5635 173.009 18.4796 172.805C18.3957 172.602 18.2699 172.418 18.1105 172.267C17.951 172.115 17.7614 171.999 17.554 171.925C17.3467 171.852 17.1261 171.823 16.9068 171.84C15.5928 171.984 14.4452 174.082 14.2043 175.239C14.2043 175.331 14.0685 176.649 14.0641 176.89L13.9941 176.689C13.6685 175.535 13.4442 174.355 13.3239 173.163C13.2495 172.506 13.2188 171.871 13.1969 171.257C13.6349 171.205 15.5227 170.951 16.3111 170.473C17.0995 169.996 17.901 169.221 17.9974 168.283C18.0276 168.065 18.0116 167.843 17.9503 167.632C17.889 167.42 17.7839 167.224 17.6418 167.056C17.4996 166.888 17.3237 166.751 17.1253 166.656C16.927 166.56 16.7108 166.507 16.4907 166.501C15.1767 166.501 13.8013 168.458 13.4247 169.567C13.4247 169.628 13.2714 170.272 13.1838 170.745C13.1838 170.465 13.1838 170.18 13.1838 169.913C13.1838 168.91 13.2495 167.99 13.3108 167.18C13.3502 166.742 13.394 166.304 13.4422 165.914C13.8232 165.651 15.3562 164.569 15.8293 163.794C16.3023 163.019 16.6659 161.95 16.3198 161.083C16.2455 160.876 16.1285 160.688 15.9765 160.529C15.8245 160.371 15.6409 160.247 15.4376 160.164C15.2344 160.082 15.016 160.043 14.7968 160.05C14.5775 160.057 14.3622 160.111 14.1649 160.207C12.9867 160.815 12.6757 163.185 12.8509 164.35C12.8509 164.451 13.3152 166.001 13.3327 165.988H13.359C13.3064 166.36 13.2538 166.763 13.21 167.201C13.1268 168.016 13.0436 168.932 13.0217 169.939C12.9846 171.023 13.0095 172.108 13.0962 173.189C13.1922 174.399 13.3945 175.597 13.7006 176.772V176.816C13.4904 176.487 12.8772 175.594 12.8246 175.528C12.0493 174.652 10.0258 173.36 8.80815 173.877C8.62134 173.971 8.45531 174.102 8.31983 174.261C8.18436 174.421 8.08218 174.606 8.01931 174.805C7.95645 175.005 7.93418 175.215 7.95382 175.423C7.97345 175.632 8.03459 175.834 8.13363 176.018C8.58477 176.846 9.66225 177.249 10.5382 177.381Z" fill="#FE6F61"/>
<path d="M33.2618 171.152C33.2618 171.152 33.6998 169.606 33.6998 169.505C33.8662 168.336 33.4895 165.975 32.2982 165.397C32.0974 165.306 31.8798 165.259 31.6595 165.258C31.4391 165.257 31.2211 165.303 31.0198 165.392C30.8184 165.481 30.6381 165.612 30.4908 165.776C30.3435 165.94 30.2325 166.133 30.1651 166.343C29.8454 167.219 30.2483 168.301 30.7301 169.041C31.2908 169.913 33.2574 171.152 33.2618 171.152Z" fill="#FE6F61"/>
<path d="M171.407 170.64C172.357 171.056 174.683 171.003 174.683 171.003C174.683 171.003 174.184 169.483 174.14 169.391C173.628 168.323 172.016 166.562 170.702 166.737C170.484 166.773 170.277 166.854 170.093 166.975C169.909 167.096 169.753 167.254 169.634 167.44C169.516 167.625 169.438 167.834 169.405 168.052C169.372 168.269 169.386 168.491 169.445 168.704C169.664 169.61 170.597 170.289 171.407 170.64Z" fill="#FE6F61"/>
<path d="M172.208 177.381C173.194 177.521 175.274 176.921 175.437 176.873C175.779 178.06 176.199 179.223 176.694 180.355C176.978 181.016 177.289 181.669 177.605 182.33C177.416 182.05 177.245 181.804 177.215 181.774C176.444 180.876 174.42 179.584 173.203 180.123C173.002 180.213 172.823 180.346 172.678 180.511C172.532 180.675 172.423 180.869 172.357 181.079C172.291 181.289 172.27 181.511 172.296 181.729C172.322 181.948 172.394 182.159 172.506 182.348C172.944 183.167 174.035 183.574 174.911 183.701C175.787 183.828 177.578 183.355 178.047 183.219C178.17 183.469 178.292 183.723 178.419 183.973C179.019 185.168 179.624 186.36 180.171 187.547C180.368 187.963 180.548 188.383 180.728 188.804C180.557 188.554 180.417 188.366 180.39 188.322C179.615 187.446 177.596 186.154 176.374 186.671C176.174 186.763 175.995 186.896 175.85 187.061C175.704 187.226 175.595 187.42 175.53 187.63C175.464 187.841 175.443 188.062 175.469 188.281C175.494 188.5 175.565 188.711 175.677 188.9C176.115 189.719 177.21 190.122 178.082 190.249C178.954 190.376 180.579 189.947 181.148 189.811C181.319 190.249 181.494 190.687 181.639 191.125C181.731 191.419 181.844 191.699 181.919 192.001C181.993 192.303 182.085 192.588 182.164 192.877C182.3 193.442 182.445 194.025 182.563 194.581C182.65 194.966 182.725 195.339 182.799 195.707C182.607 195.29 182.217 194.48 182.177 194.414C181.547 193.411 179.742 191.848 178.459 192.172C178.247 192.233 178.051 192.337 177.882 192.479C177.713 192.62 177.576 192.795 177.48 192.993C177.383 193.191 177.329 193.407 177.321 193.627C177.313 193.847 177.352 194.066 177.434 194.27C177.754 195.146 178.748 195.715 179.624 195.974C180.552 196.254 182.611 195.996 182.869 195.974C182.992 196.591 183.106 197.191 183.207 197.756C183.426 199.013 183.592 200.135 183.719 201.085H184.595C184.442 200.1 184.245 198.93 183.982 197.616C183.859 196.99 183.715 196.324 183.544 195.641C184.165 195.393 184.77 195.107 185.357 194.787C186.036 195.523 187.771 196.381 187.985 196.491C187.749 197.073 187.512 197.638 187.28 198.164C186.798 199.272 186.343 200.253 185.94 201.085H186.881C187.227 200.314 187.609 199.438 188.003 198.457C188.248 197.866 188.493 197.231 188.743 196.578C188.993 196.631 191.029 197.042 191.98 196.828C192.856 196.635 193.885 196.149 194.275 195.295C194.372 195.097 194.426 194.88 194.434 194.66C194.441 194.44 194.403 194.22 194.32 194.016C194.237 193.811 194.113 193.626 193.954 193.473C193.795 193.32 193.606 193.202 193.399 193.127C192.142 192.689 190.228 194.134 189.523 195.085C189.483 195.142 189.085 195.799 188.866 196.219C188.966 195.952 189.067 195.693 189.168 195.417C189.365 194.87 189.549 194.318 189.75 193.727L190.013 192.851C190.105 192.557 190.166 192.242 190.25 191.931C190.421 191.217 190.556 190.481 190.688 189.741C191.169 189.916 192.878 190.512 193.754 190.446C194.63 190.38 195.742 190.061 196.25 189.277C196.377 189.097 196.465 188.892 196.507 188.676C196.55 188.46 196.546 188.237 196.497 188.022C196.447 187.808 196.352 187.606 196.219 187.43C196.086 187.255 195.918 187.109 195.725 187.004C194.546 186.399 192.435 187.516 191.599 188.353C191.546 188.405 191.012 189.071 190.723 189.443C190.793 189.005 190.867 188.567 190.924 188.094C191.086 186.78 191.209 185.444 191.34 184.113C191.38 183.705 191.424 183.298 191.467 182.891C191.638 182.956 193.657 183.705 194.647 183.64C195.523 183.574 196.631 183.254 197.144 182.47C197.27 182.29 197.357 182.085 197.399 181.869C197.441 181.653 197.437 181.431 197.388 181.216C197.338 181.002 197.244 180.8 197.112 180.625C196.979 180.449 196.811 180.303 196.618 180.197C195.44 179.588 193.329 180.705 192.488 181.542C192.427 181.603 191.66 182.567 191.476 182.821C191.568 181.923 191.673 181.034 191.809 180.158C191.989 178.975 192.244 177.804 192.571 176.654C192.65 176.684 194.761 177.477 195.768 177.407C196.644 177.346 197.757 177.021 198.265 176.237C198.391 176.057 198.479 175.853 198.521 175.637C198.563 175.421 198.559 175.198 198.509 174.984C198.46 174.769 198.365 174.568 198.233 174.392C198.1 174.216 197.932 174.071 197.739 173.964C196.561 173.355 194.45 174.477 193.614 175.309C193.548 175.375 192.738 176.408 192.584 176.623C192.584 176.557 192.619 176.487 192.637 176.421C193 175.278 193.464 174.17 194.025 173.11C194.323 172.519 194.647 171.971 194.971 171.45C195.348 171.638 197.074 172.475 197.998 172.514C198.922 172.554 200.013 172.348 200.626 171.638C200.772 171.473 200.881 171.279 200.947 171.069C201.012 170.859 201.033 170.637 201.007 170.418C200.981 170.199 200.909 169.989 200.796 169.8C200.682 169.611 200.531 169.448 200.35 169.321C199.246 168.586 197.026 169.47 196.101 170.197C196.053 170.237 195.585 170.701 195.252 171.043C195.401 170.811 195.549 170.565 195.69 170.342C196.246 169.51 196.802 168.778 197.301 168.152C197.591 167.788 197.858 167.469 198.112 167.166C198.576 167.166 200.451 167.101 201.27 166.728C202.089 166.356 202.987 165.655 203.179 164.74C203.233 164.526 203.24 164.303 203.201 164.086C203.162 163.869 203.078 163.663 202.954 163.481C202.83 163.298 202.669 163.144 202.481 163.028C202.294 162.913 202.084 162.838 201.865 162.808C200.551 162.668 198.979 164.473 198.497 165.555C198.458 165.647 197.976 167.184 197.998 167.184H198.029C197.779 167.469 197.512 167.775 197.231 168.117C196.715 168.748 196.141 169.47 195.567 170.307C194.935 171.19 194.358 172.11 193.837 173.062C193.247 174.122 192.753 175.234 192.361 176.382C192.363 176.397 192.363 176.411 192.361 176.426C192.361 176.036 192.361 174.95 192.361 174.867C192.208 173.693 191.222 171.516 189.921 171.275C189.704 171.241 189.481 171.253 189.269 171.311C189.056 171.368 188.858 171.47 188.687 171.609C188.517 171.748 188.377 171.922 188.278 172.119C188.179 172.316 188.123 172.531 188.112 172.751C188.038 173.684 188.712 174.617 189.369 175.204C190.114 175.87 192.177 176.518 192.343 176.562C191.971 177.741 191.679 178.944 191.467 180.162C191.34 180.872 191.235 181.59 191.139 182.308C191.139 181.975 191.139 181.673 191.139 181.634C190.986 180.46 190 178.283 188.699 178.042C188.482 178.008 188.26 178.02 188.048 178.077C187.835 178.135 187.637 178.236 187.467 178.375C187.296 178.514 187.157 178.687 187.057 178.883C186.958 179.079 186.901 179.294 186.89 179.514C186.816 180.447 187.49 181.38 188.147 181.971C188.804 182.562 190.565 183.149 191.029 183.285C190.999 183.561 190.959 183.837 190.924 184.117C190.767 185.431 190.613 186.771 190.425 188.059C190.359 188.497 190.276 188.961 190.193 189.413C190.193 189.115 190.193 188.861 190.193 188.826C190.039 187.652 189.058 185.471 187.753 185.23C187.536 185.196 187.313 185.209 187.101 185.267C186.889 185.325 186.691 185.426 186.521 185.566C186.35 185.705 186.211 185.878 186.111 186.074C186.012 186.271 185.955 186.486 185.944 186.706C185.87 187.639 186.544 188.572 187.206 189.158C187.867 189.745 189.453 190.284 190 190.472C189.904 190.91 189.807 191.384 189.693 191.826C189.61 192.119 189.549 192.413 189.448 192.702C189.347 192.991 189.26 193.289 189.168 193.578C188.966 194.125 188.765 194.69 188.559 195.22L188.121 196.289C188.191 195.851 188.314 194.944 188.314 194.866C188.3 193.825 188.019 192.806 187.499 191.905C187.5 191.789 187.493 191.673 187.477 191.559C187.447 191.342 187.372 191.134 187.257 190.948C187.142 190.762 186.989 190.602 186.808 190.478C186.628 190.354 186.423 190.27 186.208 190.229C185.993 190.189 185.772 190.194 185.559 190.245C184.28 190.586 183.465 192.833 183.404 194.016C183.404 194.086 183.448 194.848 183.483 195.33C183.421 195.05 183.36 194.782 183.29 194.493C183.154 193.928 183.005 193.368 182.852 192.763C182.764 192.474 182.672 192.181 182.585 191.887C182.497 191.594 182.379 191.292 182.274 190.989C182.024 190.297 181.731 189.61 181.424 188.922C181.919 188.804 183.675 188.357 184.376 187.814C185.077 187.271 185.822 186.395 185.817 185.462C185.823 185.242 185.782 185.023 185.698 184.819C185.613 184.616 185.487 184.432 185.327 184.281C185.167 184.129 184.978 184.013 184.77 183.94C184.562 183.866 184.342 183.837 184.122 183.854C182.808 183.999 181.661 186.097 181.424 187.258C181.424 187.328 181.332 188.177 181.297 188.646C181.109 188.234 180.92 187.823 180.719 187.411C180.128 186.228 179.497 185.046 178.87 183.863L178.301 182.777C178.481 182.733 180.574 182.247 181.367 181.642C182.072 181.104 182.812 180.223 182.808 179.29C182.814 179.07 182.773 178.851 182.689 178.648C182.604 178.444 182.478 178.261 182.318 178.11C182.158 177.958 181.969 177.842 181.761 177.768C181.553 177.695 181.333 177.666 181.113 177.683C179.799 177.827 178.651 179.925 178.415 181.086C178.415 181.174 178.284 182.4 178.275 182.711C177.859 181.91 177.451 181.112 177.083 180.306C176.579 179.222 176.148 178.106 175.791 176.965C175.875 176.965 178.065 176.448 178.857 175.83C179.558 175.291 180.303 174.411 180.294 173.478C180.3 173.258 180.26 173.039 180.176 172.836C180.092 172.633 179.966 172.449 179.807 172.297C179.648 172.146 179.458 172.029 179.251 171.956C179.043 171.882 178.823 171.853 178.603 171.871C177.289 172.015 176.142 174.113 175.901 175.269C175.901 175.361 175.765 176.68 175.761 176.921L175.691 176.719C175.365 175.566 175.141 174.386 175.02 173.193C174.95 172.536 174.915 171.901 174.893 171.288C175.331 171.236 177.219 170.981 178.008 170.504C178.796 170.027 179.598 169.251 179.694 168.314C179.724 168.096 179.708 167.874 179.647 167.662C179.586 167.451 179.48 167.255 179.338 167.087C179.196 166.918 179.02 166.782 178.822 166.686C178.624 166.591 178.407 166.538 178.187 166.531C176.873 166.531 175.498 168.489 175.121 169.597C175.121 169.659 174.968 170.303 174.88 170.776C174.88 170.495 174.88 170.211 174.88 169.943C174.88 168.94 174.946 168.021 175.007 167.21C175.047 166.772 175.091 166.334 175.139 165.944C175.52 165.682 177.053 164.6 177.526 163.825C177.999 163.049 178.362 161.981 178.016 161.113C177.942 160.907 177.825 160.718 177.673 160.56C177.521 160.402 177.337 160.278 177.134 160.195C176.931 160.112 176.713 160.073 176.493 160.081C176.274 160.088 176.059 160.141 175.861 160.237C174.683 160.846 174.372 163.216 174.569 164.381C174.569 164.482 175.007 166.032 175.051 166.019H175.073C175.02 166.391 174.968 166.794 174.924 167.232C174.841 168.047 174.758 168.962 174.736 169.97C174.699 171.054 174.723 172.139 174.81 173.22C174.906 174.429 175.108 175.628 175.415 176.802V176.846C175.204 176.518 174.591 175.624 174.539 175.559C173.763 174.683 171.74 173.39 170.522 173.907C170.322 173.999 170.143 174.131 169.997 174.297C169.851 174.462 169.742 174.656 169.676 174.866C169.61 175.077 169.59 175.299 169.615 175.518C169.641 175.736 169.713 175.947 169.826 176.137C170.255 176.846 171.332 177.249 172.208 177.381Z" fill="#FE6F61"/>
<path d="M194.932 171.152C194.932 171.152 195.37 169.606 195.37 169.505C195.536 168.336 195.16 165.975 193.968 165.397C193.768 165.306 193.55 165.259 193.33 165.258C193.109 165.257 192.891 165.303 192.69 165.392C192.488 165.481 192.308 165.612 192.161 165.776C192.014 165.94 191.903 166.133 191.835 166.343C191.515 167.219 191.918 168.301 192.4 169.041C192.961 169.913 194.91 171.152 194.932 171.152Z" fill="#FE6F61"/>
<path d="M153.007 79.4699C153.007 79.4699 153.142 74.5249 155.994 73.1233C158.845 71.7217 159.007 76.3514 159.007 76.3514C159.007 76.3514 165.529 72.2079 166.944 75.3483C168.359 78.4888 166.383 80.0087 166.383 80.0087C166.383 80.0087 172.173 79.8072 172.576 82.9827C172.979 86.1582 169.988 87.7131 169.988 87.7131C169.988 87.7131 173.566 90.6345 172.309 91.9836C171.052 93.3326 168.302 93.429 168.302 93.429C168.302 93.429 169.861 96.5607 167.141 97.6732C164.421 98.7857 161.311 96.714 161.311 96.714C161.311 96.714 161.793 98.1506 159.752 97.7871C157.711 97.4235 155.648 96.4731 154.382 93.4772C153.116 90.4812 151.482 81.9972 153.007 79.4699Z" fill="#263238" stroke="#263238" stroke-width="0.438" stroke-linecap="round" stroke-linejoin="round"/>
<path d="M122.898 174.976C122.898 174.976 121.273 181.178 121.3 181.866C121.326 182.553 120.761 184.113 121.238 184.555C122.132 185.284 123.079 185.944 124.072 186.53C124.477 186.525 124.872 186.405 125.211 186.184C125.321 186.086 125.409 185.966 125.47 185.832C125.531 185.697 125.564 185.552 125.566 185.405C125.566 185.172 124.913 184.2 124.826 183.972C124.738 183.745 126.021 180.779 126.508 179.303C126.872 177.985 127.132 176.641 127.287 175.282L122.898 174.976Z" fill="#BDBDBD" stroke="#263238" stroke-width="0.438" stroke-miterlimit="10"/>
<path d="M124.664 179.295C124.664 179.295 123.739 181.485 123.678 181.861C123.617 182.238 122.364 183.289 122.531 184.13C122.697 184.971 124.545 184.748 125.456 182.26" fill="#BDBDBD"/>
<path d="M124.664 179.295C124.664 179.295 123.739 181.485 123.678 181.861C123.617 182.238 122.364 183.289 122.531 184.13C122.697 184.971 124.545 184.748 125.456 182.26" stroke="#263238" stroke-width="0.438" stroke-miterlimit="10"/>
<path d="M128.803 141.285C128.803 141.285 128.027 153.934 127.734 155.051C127.441 156.168 123.919 166.369 123.144 169.505C122.668 171.447 122.33 173.42 122.132 175.409L126.858 176.404L129.512 164.744C129.512 164.744 132.981 154.118 132.276 149.138C131.914 146.236 130.706 143.505 128.803 141.285Z" fill="#FE6F61" stroke="#263238" stroke-width="0.438" stroke-miterlimit="10"/>
<path d="M153.423 201.041C153.48 198.29 153.593 194.581 153.861 192.456C154.299 188.786 155.867 186.517 157.479 181.944C159.09 177.372 159.231 171.362 159.231 171.362L130.366 172.37C130.366 172.37 127.02 184.778 124.992 193.906C124.441 196.248 124.12 198.637 124.033 201.041" fill="#FE6F61"/>
<path d="M153.423 201.041C153.48 198.29 153.593 194.581 153.861 192.456C154.299 188.786 155.867 186.517 157.479 181.944C159.09 177.372 159.231 171.362 159.231 171.362L130.366 172.37C130.366 172.37 127.02 184.778 124.992 193.906C124.441 196.248 124.12 198.637 124.033 201.041" stroke="#263238" stroke-width="0.438" stroke-miterlimit="10"/>
<path d="M134.146 177.021L158.162 177.696L158.67 175.839L134.146 177.021Z" fill="#263238" stroke="#263238" stroke-width="0.438" stroke-linecap="round" stroke-linejoin="round"/>
<path d="M132.933 200.603C132.933 200.603 132.46 185.584 132.447 177.433L132.933 200.603Z" fill="white"/>
<path d="M132.933 200.603C132.933 200.603 132.46 185.584 132.447 177.433" stroke="#263238" stroke-width="0.438" stroke-miterlimit="10"/>
<path d="M151.342 109.512L154.846 111.869C154.846 111.869 158.994 115.574 160.015 118.64C161.035 121.706 160.295 139.914 159.266 145.796C158.236 151.679 160.807 159.006 161.723 163.141C162.638 167.276 163.037 174.967 163.037 174.967C163.037 174.967 163.685 175.869 152.437 176.259C141.189 176.649 133.345 177.236 132.425 177.42C131.869 177.534 131.305 177.606 130.739 177.634L130.301 173.64L129.21 176.929L126.876 176.395C126.876 176.395 128.325 169.247 128.689 166.461C129.052 163.675 131.348 154.197 131.378 150.632C131.409 147.066 128.43 141.329 127.848 137.798C127.265 134.268 128.439 128.215 131.352 123.642C134.265 119.07 136.218 117.3 141.912 112.631C147.606 107.962 151.342 109.512 151.342 109.512Z" fill="#FE6F61" stroke="#263238" stroke-width="0.438" stroke-miterlimit="10"/>
<path d="M142.214 162.883L153.966 164.214L153.304 161.14L145.972 160.509" stroke="#263238" stroke-width="0.438" stroke-miterlimit="10"/>
<path d="M138.106 160.338L137.51 162.353L140.458 162.686" stroke="#263238" stroke-width="0.438" stroke-miterlimit="10"/>
<path d="M142.516 140.203C141.964 139.691 141.457 139.133 141.001 138.534" stroke="#263238" stroke-width="0.438" stroke-miterlimit="10"/>
<path d="M146.603 143.655C146.603 143.655 145.363 142.717 144.006 141.552" stroke="#263238" stroke-width="0.438" stroke-miterlimit="10"/>
<path d="M151.342 109.512C151.342 109.512 147.606 107.957 141.912 112.631C136.218 117.304 134.269 119.078 131.343 123.642C129.595 126.464 128.433 129.608 127.927 132.888C127.997 133.23 128.071 133.576 128.154 133.931C129.784 140.816 131.597 144.145 131.597 144.145C131.597 144.145 134.751 128.456 140.239 122.096C145.727 115.736 154.842 111.869 154.842 111.869L151.342 109.512Z" fill="#FE6F61" stroke="#263238" stroke-width="0.438" stroke-miterlimit="10"/>
<path d="M137.646 78.9094C137.646 78.9094 133.533 82.7506 133.227 85.7772C132.92 88.8038 132.6 91.4143 132.088 92.391C131.575 93.3678 128.991 94.0072 129.867 95.4833C130.743 96.9594 131.562 96.9287 131.562 96.9287C131.562 96.9287 132.876 103.459 133.875 104.375C134.873 105.29 138.408 104.765 138.408 104.765L139.503 112.684C139.503 112.684 132.149 119.205 130.717 128.294C129.285 137.382 130.923 142.568 130.923 142.568C130.923 142.568 131.882 128.25 135.193 122.889C138.504 117.528 146.196 112.451 147.33 111.536C148.465 110.621 151.342 109.504 151.342 109.504C151.342 109.504 149.976 106.438 149.792 105.054C149.608 103.67 149.669 101.633 149.927 101.077C150.186 100.52 154.78 98.8515 156.497 93.5868C158.214 88.322 155.687 82.1068 152.993 79.4613C150.3 76.8157 141.089 75.5017 137.646 78.9094Z" fill="#BDBDBD" stroke="#263238" stroke-width="0.438" stroke-miterlimit="10"/>
<path d="M156.515 93.5953C158.267 88.3393 155.705 82.1153 153.011 79.4698C150.317 76.8243 141.093 75.5015 137.65 78.9091C137.65 78.9091 137.431 79.115 137.09 79.4698C138.398 79.1426 139.761 79.0978 141.089 79.3384C143.844 79.7764 143.782 81.9664 143.033 84.0644C142.284 86.1624 142.849 86.5347 144.255 87.5684C145.661 88.6021 144.22 90.5862 145.21 91.3746C146.2 92.163 147.006 87.8706 149.152 90.9629C151.298 94.0552 149.857 95.4568 148.517 96.324C147.767 96.8253 146.952 97.223 146.095 97.5066C146.095 97.5066 148.123 99.885 150.125 100.866C151.084 100.152 154.956 98.3257 156.515 93.5953Z" fill="#263238" stroke="#263238" stroke-width="0.438" stroke-linecap="round" stroke-linejoin="round"/>
<path d="M133.791 98.0848C133.791 98.0848 136.66 97.8483 137.988 96.5693" stroke="#263238" stroke-width="0.438" stroke-miterlimit="10"/>
<path d="M135.614 91.309C135.635 91.9879 135.377 92.5485 135.04 92.5617C134.702 92.5748 134.405 92.0317 134.378 91.3528C134.352 90.6739 134.615 90.1132 134.952 90.1001C135.289 90.0869 135.587 90.6301 135.614 91.309Z" fill="#263238"/>
<path d="M134.378 88.5366C134.378 88.5366 135.303 87.2927 136.625 88.76" stroke="#263238" stroke-width="0.438" stroke-miterlimit="10"/>
<path d="M138.408 104.773L141.829 103.485L139.446 107.765L138.408 104.773Z" fill="#263238" stroke="#263238" stroke-width="0.438" stroke-miterlimit="10"/>
<path d="M128.557 167.639L124.072 186.53L128.097 187.468L130.314 173.653L128.557 167.639Z" fill="white" stroke="#263238" stroke-width="0.438" stroke-miterlimit="10"/>
<path d="M132.521 122.411C131.66 124.286 131.053 126.267 130.717 128.303C129.285 137.387 130.923 142.577 130.923 142.577C130.923 142.577 131.873 128.452 135.127 123.012C134.239 122.911 133.364 122.71 132.521 122.411Z" fill="white" stroke="#263238" stroke-width="0.438" stroke-miterlimit="10"/>
<path d="M146.38 128.307L146.073 144.338L118.019 148.963L118.632 156.518C118.632 156.518 134.203 156.825 141.448 156.207C148.692 155.59 155.026 155.13 155.937 154.359C156.848 153.588 159.489 138.687 160.566 128.206C161.644 117.725 159.489 114.19 155.175 114.795" fill="#FE6F61"/>
<path d="M146.38 128.307L146.073 144.338L118.019 148.963L118.632 156.518C118.632 156.518 134.203 156.825 141.448 156.207C148.692 155.59 155.026 155.13 155.937 154.359C156.848 153.588 159.489 138.687 160.566 128.206C161.644 117.725 159.489 114.19 155.175 114.795" stroke="#263238" stroke-width="0.438" stroke-miterlimit="10"/>
<path d="M101.235 148.284L98.9881 155.099L101.178 156.291C101.178 156.291 103.959 158.446 105.484 159.611C107.008 160.776 108.177 160.776 108.988 160.417C109.798 160.057 113.473 154.854 113.919 153.869C114.366 152.883 112.216 149.927 110.065 148.665C107.914 147.404 106.123 147.412 104.862 147.789C103.668 148.049 102.455 148.214 101.235 148.284Z" fill="white" stroke="#263238" stroke-width="0.438" stroke-miterlimit="10"/>
<path d="M118.019 148.963L114.471 148.656C113.358 148.366 112.225 148.159 111.081 148.039C110.157 148.039 108.922 148.963 108.304 149.427C107.687 149.891 100.906 157.289 100.906 157.289C100.906 157.289 101.524 158.52 102.448 158.213C103.372 157.907 105.076 157.132 105.076 157.132C105.076 157.132 103.228 158.984 104.152 159.908C105.076 160.833 106.618 160.833 106.618 160.833L107.7 160.215C108.155 160.574 108.678 160.836 109.237 160.986C110.008 161.139 111.243 160.833 112.303 160.215C113.363 159.598 116.118 156.383 116.118 156.383L118.483 155.467L118.019 148.963Z" fill="#BDBDBD" stroke="#263238" stroke-width="0.438" stroke-miterlimit="10"/>
<path d="M102.457 148.577C102.457 148.577 106.942 145.976 108.913 146.694C110.884 147.412 113.49 151.805 112.772 152.436C112.054 153.067 110.888 152.791 110.262 152.165C109.738 151.689 109.167 151.268 108.558 150.908C107.377 151.571 106.054 151.941 104.7 151.985" fill="white"/>
<path d="M102.457 148.577C102.457 148.577 106.942 145.976 108.913 146.694C110.884 147.412 113.49 151.805 112.772 152.436C112.054 153.067 110.888 152.791 110.262 152.165C109.738 151.689 109.167 151.268 108.558 150.908C107.377 151.571 106.054 151.941 104.7 151.985" stroke="#263238" stroke-width="0.438" stroke-miterlimit="10"/>
<path d="M115.834 158.761L114.41 157.999C114.295 157.938 114.194 157.855 114.111 157.755C114.029 157.655 113.967 157.54 113.929 157.415C113.891 157.291 113.878 157.161 113.891 157.032C113.903 156.903 113.941 156.777 114.003 156.663C114.064 156.549 114.147 156.448 114.247 156.365C114.347 156.283 114.463 156.222 114.587 156.184C114.711 156.147 114.841 156.134 114.97 156.147C115.099 156.16 115.224 156.199 115.339 156.26L116.762 157.018C116.993 157.141 117.165 157.351 117.242 157.602C117.318 157.852 117.292 158.122 117.169 158.354C117.046 158.584 116.836 158.757 116.586 158.833C116.335 158.909 116.065 158.883 115.834 158.761Z" fill="white" stroke="#263238" stroke-width="0.438" stroke-miterlimit="10"/>
<path d="M114.576 160.285L113.153 159.523C112.928 159.4 112.76 159.194 112.684 158.949C112.608 158.703 112.63 158.438 112.746 158.209C112.87 157.985 113.076 157.818 113.321 157.743C113.566 157.667 113.831 157.69 114.06 157.806L115.483 158.564C115.709 158.687 115.878 158.893 115.954 159.138C116.03 159.384 116.007 159.649 115.89 159.878C115.768 160.104 115.562 160.273 115.316 160.349C115.071 160.425 114.805 160.402 114.576 160.285Z" fill="white" stroke="#263238" stroke-width="0.438" stroke-miterlimit="10"/>
<path d="M113.14 161.63L111.716 160.868C111.602 160.807 111.5 160.724 111.418 160.624C111.335 160.524 111.273 160.408 111.236 160.284C111.198 160.16 111.186 160.029 111.199 159.9C111.213 159.771 111.251 159.646 111.313 159.532C111.374 159.418 111.458 159.317 111.558 159.234C111.658 159.152 111.774 159.091 111.898 159.053C112.022 159.016 112.152 159.003 112.281 159.016C112.41 159.029 112.535 159.068 112.649 159.129L114.073 159.891C114.187 159.952 114.288 160.035 114.37 160.136C114.452 160.236 114.514 160.351 114.551 160.475C114.589 160.6 114.601 160.73 114.588 160.859C114.575 160.988 114.537 161.113 114.476 161.227C114.415 161.341 114.331 161.442 114.231 161.525C114.131 161.607 114.015 161.668 113.891 161.706C113.767 161.743 113.637 161.756 113.508 161.743C113.379 161.73 113.254 161.691 113.14 161.63Z" fill="white" stroke="#263238" stroke-width="0.438" stroke-miterlimit="10"/>
<path d="M110.118 161.696L109.745 161.499C109.631 161.438 109.529 161.355 109.447 161.255C109.364 161.155 109.302 161.039 109.264 160.915C109.226 160.791 109.213 160.661 109.226 160.532C109.239 160.402 109.277 160.277 109.338 160.163C109.462 159.932 109.672 159.76 109.922 159.683C110.172 159.607 110.443 159.633 110.674 159.755L111.046 159.957C111.161 160.018 111.262 160.1 111.345 160.2C111.428 160.301 111.49 160.416 111.527 160.54C111.565 160.664 111.578 160.795 111.566 160.924C111.553 161.053 111.515 161.178 111.454 161.293C111.392 161.407 111.309 161.508 111.209 161.59C111.109 161.672 110.993 161.734 110.869 161.771C110.745 161.809 110.615 161.821 110.486 161.808C110.357 161.795 110.232 161.757 110.118 161.696Z" fill="white" stroke="#263238" stroke-width="0.438" stroke-miterlimit="10"/>
<path d="M101.235 148.284L82.4097 140.326L83.1062 152.795L98.6508 156.356L101.235 148.284Z" fill="#263238" stroke="#263238" stroke-width="0.438" stroke-linecap="round" stroke-linejoin="round"/>
<path d="M98.6508 156.356L101.235 148.284L98.6026 147.119L98.5501 147.386L96.1411 155.748L98.6508 156.356Z" fill="white" stroke="#263238" stroke-width="0.438" stroke-miterlimit="10"/>
<path d="M71.832 98.4047L76.65 100.643C76.65 100.643 78.6736 106.376 77.999 106.543C77.3245 106.709 72.2656 102.666 72.2656 102.666L71.832 98.4047Z" fill="white" stroke="#263238" stroke-width="0.438" stroke-linecap="round" stroke-linejoin="round"/>
<path d="M74.6309 97.2571L74.9681 95.3255C74.9681 95.3255 79.4357 95.6321 81.2228 95.619C83.0098 95.6058 84.5691 95.3781 84.5559 93.4815C84.5428 91.585 83.5004 85.1157 83.5004 85.1157C83.5004 85.1157 85.5064 84.6558 86.2817 83.7579C87.0569 82.86 85.9356 81.7519 84.9239 80.416C83.9121 79.0801 83.0054 77.6391 82.8872 76.0754C82.7689 74.5118 80.0533 69.3959 80.0533 69.3959C80.0533 69.3959 80.4913 68.6119 79.0328 66.9475C77.5742 65.2831 70.0932 64.994 65.3058 67.3855C60.5185 69.777 59.4279 73.2284 59.4498 77.0215C59.4717 80.8146 61.6398 86.1626 61.6398 86.1626C61.6398 86.1626 60.225 91.9748 60.1155 92.2946C60.006 92.6143 58.7358 95.1065 58.7358 95.1065C58.7358 95.1065 64.7233 99.2807 66.9089 101.155C69.0945 103.03 74.0308 106.236 74.0615 104.502C74.0921 102.767 74.2892 98.8514 74.2892 98.8514L74.6309 97.2571Z" fill="white" stroke="#263238" stroke-width="0.438" stroke-linecap="round" stroke-linejoin="round"/>
<path d="M81.2314 79.1414C81.2577 79.7897 81.1088 80.3196 80.8942 80.3284C80.6795 80.3372 80.4781 79.8247 80.4562 79.1765C80.4343 78.5282 80.5744 77.9983 80.7934 77.9895C81.0124 77.9807 81.2008 78.4932 81.2314 79.1414Z" fill="#263238"/>
<path d="M78.0911 76.9996C78.0911 76.9996 79.0854 75.3177 81.6608 76.3076" stroke="#263238" stroke-width="0.876" stroke-linecap="round" stroke-linejoin="round"/>
<path d="M84.556 93.4815C84.556 91.5806 83.5004 85.1157 83.5004 85.1157C83.5004 85.1157 82.2696 84.4543 79.9263 85.0237C77.583 85.5931 76.9435 89.4037 76.4968 89.8417C76.05 90.2797 73.1373 87.6517 72.0073 85.8516C70.8772 84.0514 70.0801 80.9722 69.9574 79.1721C69.8348 77.3719 74.0703 76.4652 74.7316 74.7921C75.393 73.1189 72.2701 71.3362 73.3607 70.2193C74.4513 69.1024 76.707 69.5317 77.8239 69.7463C78.5853 69.8493 79.3602 69.7275 80.0533 69.3959C80.0533 69.3959 80.4913 68.6119 79.0328 66.9475C77.5743 65.2831 70.0932 64.994 65.3059 67.3855C60.5185 69.777 59.4279 73.2284 59.4498 77.0215C59.4717 80.0875 60.8908 84.1872 61.4252 85.6326C61.8774 85.8281 62.3648 85.9295 62.8575 85.9304C63.2955 85.8165 63.6283 84.4762 63.843 83.1316C64.0576 81.7869 67.2856 80.2101 67.2856 80.2101C67.2856 80.2101 67.8682 84.2266 67.8726 85.0062C67.8769 85.7859 67.4346 89.6972 69.5895 91.5762C71.2768 92.9749 73.0757 94.2333 74.9682 95.3386C74.9682 95.3386 79.4358 95.6453 81.2228 95.6321C83.0098 95.619 84.5691 95.3781 84.556 93.4815Z" fill="#263238" stroke="#263238" stroke-width="0.438" stroke-linecap="round" stroke-linejoin="round"/>
<path d="M67.9733 82.9783C67.9733 82.9783 67.0447 77.6259 65.4854 77.858C63.9261 78.0902 63.0414 80.105 63.8385 82.676C64.6357 85.2471 66.1994 85.0062 67.0885 84.7784" fill="white"/>
<path d="M67.9733 82.9783C67.9733 82.9783 67.0447 77.6259 65.4854 77.858C63.9261 78.0902 63.0414 80.105 63.8385 82.676C64.6357 85.2471 66.1994 85.0062 67.0885 84.7784" stroke="#263238" stroke-width="0.438" stroke-linecap="round" stroke-linejoin="round"/>
<path d="M78.9364 87.0385C78.9364 87.0385 79.8343 88.151 82.1776 88.1378" stroke="white" stroke-width="0.438" stroke-linecap="round" stroke-linejoin="round"/>
<path d="M53.874 201.041H77.526C77.6049 199.797 78.5247 195.014 78.5247 191.878C78.5247 188.256 81.0169 164.889 81.0169 164.889L50.2561 164.486L51.2635 178.786L53.874 201.041Z" fill="#263238" stroke="#263238" stroke-width="0.438" stroke-linecap="round" stroke-linejoin="round"/>
<path d="M56.94 95.9211C56.94 95.9211 51.5482 102.837 50.0284 106.713C48.5085 110.59 47.3303 111.264 47.6676 116.152C48.0048 121.04 50.37 140.597 50.37 140.597L45.6484 166.058C51.2212 168.055 57.0954 169.08 63.0151 169.089C72.7912 169.089 77.0311 168.248 77.6837 167.911C78.3363 167.574 84.2537 166.058 84.2537 166.058C84.2537 166.058 84.2537 137.229 82.3966 127.282C80.5395 117.335 78.183 109.762 77.3421 107.892C76.5011 106.021 73.7986 99.9683 73.7986 99.9683L56.94 95.9211Z" fill="#263238" stroke="#263238" stroke-width="0.438" stroke-linecap="round" stroke-linejoin="round"/>
<path d="M77.3552 107.892C76.5098 106.039 73.8117 99.9683 73.8117 99.9683L56.94 95.9211C56.94 95.9211 55.8012 97.3841 54.4215 99.3419C58.0963 101.475 67.1936 106.748 67.7323 106.88C68.4068 107.051 71.7794 106.713 71.7794 106.713L70.2727 108.566C70.2727 108.566 74.3198 111.772 75.6689 113.117C76.3784 113.827 78.437 115.701 80.2328 117.322C79.0108 112.478 77.8808 109.057 77.3552 107.892Z" fill="#263238" stroke="#263238" stroke-width="0.438" stroke-linecap="round" stroke-linejoin="round"/>
<path d="M69.5982 103.678L75.3316 108.229L80.0488 116.66L77.0179 104.353L70.7808 100.814L69.5982 103.678Z" fill="white" stroke="#263238" stroke-width="0.438" stroke-linecap="round" stroke-linejoin="round"/>
<path d="M58.1358 92.7195L75.7872 100.674V106.911L55.6042 96.5958L58.1358 92.7195Z" fill="white" stroke="#263238" stroke-width="0.438" stroke-linecap="round" stroke-linejoin="round"/>
<path d="M81.4768 156.523H50.9745V181.204H81.4768V156.523Z" fill="#FE6F61" stroke="#263238" stroke-width="0.438" stroke-miterlimit="10"/>
<path d="M68.0959 168.288C68.0959 168.288 70.3648 171.244 71.2539 171.542C72.0025 171.849 72.6215 172.407 73.0059 173.119C73.4001 173.71 73.8819 178.147 74.1885 178.445C74.4951 178.743 74.4863 179.43 73.4001 178.935C72.3139 178.44 71.6481 176.745 71.6481 176.745L72.0423 180.687C72.0423 180.687 72.9183 180.884 72.2394 181.379C71.5605 181.874 70.9561 182.562 70.3648 182.255C69.8386 181.942 69.3443 181.578 68.8887 181.169C68.1843 181.406 67.4341 181.473 66.6987 181.366C65.6168 181.169 65.8227 181.563 64.8284 180.871C63.8342 180.179 63.8386 180.972 63.348 179.689C62.5838 177.392 61.9578 175.052 61.4734 172.681C61.2763 171.397 61.0792 169.615 61.0792 169.615L68.0959 168.288Z" fill="white" stroke="#263238" stroke-width="0.438" stroke-linecap="round" stroke-linejoin="round"/>
<path d="M68.4945 166.413L69.1822 169.47L60.7025 170.653L60.3083 167.595L68.4945 166.413Z" fill="white" stroke="#263238" stroke-width="0.438" stroke-linecap="round" stroke-linejoin="round"/>
<path d="M57.6277 101.996C57.6277 101.996 51.7279 103.849 51.5614 106.547C51.395 109.245 49.4371 141.968 50.2825 144.158C51.1278 146.348 59.4191 168.542 59.4191 168.542L69.0289 167.363C69.0289 167.363 64.1057 141.627 63.9481 141.118C63.7904 140.61 67.2506 111.939 67.2506 111.939" fill="#263238"/>
<path d="M57.6277 101.996C57.6277 101.996 51.7279 103.849 51.5614 106.547C51.395 109.245 49.4371 141.968 50.2825 144.158C51.1278 146.348 59.4191 168.542 59.4191 168.542L69.0289 167.363C69.0289 167.363 64.1057 141.627 63.9481 141.119C63.7904 140.61 67.2506 111.939 67.2506 111.939" stroke="#263238" stroke-width="0.438" stroke-linecap="round" stroke-linejoin="round"/>
<path d="M66.1073 120.173L63.9348 141.118L66.0066 154.131" stroke="#878787" stroke-width="0.438" stroke-linecap="round" stroke-linejoin="round"/>
<path d="M66.4403 116.967L66.3264 118.08" stroke="#878787" stroke-width="0.438" stroke-linecap="round" stroke-linejoin="round"/>
<path d="M50.8825 113.726L50.2342 133.392" stroke="#878787" stroke-width="0.438" stroke-linecap="round" stroke-linejoin="round"/>
<path d="M72.9226 150.697L79.405 150.461L79.9876 152.795L69.2478 153.483" stroke="#878787" stroke-width="0.438" stroke-linecap="round" stroke-linejoin="round"/>
<path d="M67.522 150.89L70.9735 150.768" stroke="#878787" stroke-width="0.438" stroke-linecap="round" stroke-linejoin="round"/>
<path d="M55.8537 99.8982L67.7454 106.88L71.7926 106.713L70.2727 108.566L78.1085 114.808" stroke="#878787" stroke-width="0.438" stroke-linecap="round" stroke-linejoin="round"/>
<path d="M5.02829 201.041H204.971" stroke="#263238" stroke-width="0.438" stroke-miterlimit="10"/>
<path d="M61.5347 20.537V50.1414" stroke="#263238" stroke-width="0.438" stroke-miterlimit="10"/>
<path d="M107.008 20.5371V50.1415" stroke="#263238" stroke-width="0.438" stroke-miterlimit="10"/>
<path d="M152.481 20.5371V50.1415" stroke="#263238" stroke-width="0.438" stroke-miterlimit="10"/>
</svg>
