<svg width="14" height="12" viewBox="0 0 14 12" fill="none" xmlns="http://www.w3.org/2000/svg">
<path d="M12.1248 7.39539L12.247 6.25895C12.3122 5.65259 12.3553 5.2522 12.3215 4.99993L12.3333 5C12.8856 5 13.3333 4.55229 13.3333 4C13.3333 3.44772 12.8856 3 12.3333 3C11.781 3 11.3333 3.44772 11.3333 4C11.3333 4.24977 11.4249 4.47816 11.5763 4.65342C11.3589 4.78758 11.0747 5.07066 10.647 5.49676L10.647 5.49677C10.3174 5.82503 10.1526 5.98916 9.96883 6.01458C9.86698 6.02866 9.7632 6.01418 9.66916 5.97277C9.49942 5.89803 9.38625 5.69512 9.15992 5.28931L7.96693 3.15027C7.8273 2.89992 7.71044 2.69038 7.60507 2.52177C8.03731 2.30125 8.33329 1.85186 8.33329 1.33333C8.33329 0.596954 7.73634 0 6.99996 0C6.26358 0 5.66663 0.596954 5.66663 1.33333C5.66663 1.85186 5.96261 2.30125 6.39485 2.52177C6.28947 2.69039 6.17263 2.89989 6.03299 3.15027L4.84 5.28931C4.61367 5.69512 4.5005 5.89803 4.33076 5.97277C4.23672 6.01418 4.13294 6.02866 4.03109 6.01458C3.84727 5.98916 3.6825 5.82503 3.35296 5.49677C2.9252 5.07067 2.641 4.78758 2.42365 4.65342C2.57505 4.47816 2.66663 4.24977 2.66663 4C2.66663 3.44772 2.21891 3 1.66663 3C1.11434 3 0.666626 3.44772 0.666626 4C0.666626 4.55229 1.11434 5 1.66663 5L1.67843 4.99993C1.64464 5.2522 1.6877 5.65259 1.75292 6.25895L1.87516 7.39539C1.94301 8.02621 1.99943 8.62643 2.06854 9.16667H11.9314C12.0005 8.62643 12.0569 8.02621 12.1248 7.39539Z" fill="#C59856"/>
<path d="M6.27467 12H7.72525C9.61587 12 10.5612 12 11.1919 11.4354C11.4672 11.189 11.6415 10.7448 11.7673 10.1667H2.2326C2.35839 10.7448 2.53271 11.189 2.80801 11.4354C3.43874 12 4.38405 12 6.27467 12Z" fill="#C59856"/>
</svg>
