<?xml version="1.0" encoding="UTF-8" standalone="no" ?>
<!DOCTYPE svg PUBLIC "-//W3C//DTD SVG 1.1//EN" "http://www.w3.org/Graphics/SVG/1.1/DTD/svg11.dtd">
<svg xmlns="http://www.w3.org/2000/svg" xmlns:xlink="http://www.w3.org/1999/xlink" version="1.1" width="1080" height="1080" viewBox="0 0 1080 1080" xml:space="preserve">
<desc>Created with Fabric.js 5.2.4</desc>
<defs>
</defs>
<rect x="0" y="0" width="100%" height="100%" fill="transparent"></rect>
<g transform="matrix(1 0 0 1 540 540)" id="665fff6b-23d4-45d3-a49b-987285c8ca1d"  >
</g>
<g transform="matrix(1 0 0 1 540 540)" id="42e867ba-5851-4ef8-b5b8-ce234b44897a"  >
<rect style="stroke: none; stroke-width: 1; stroke-dasharray: none; stroke-linecap: butt; stroke-dashoffset: 0; stroke-linejoin: miter; stroke-miterlimit: 4; fill: rgb(255,255,255); fill-rule: nonzero; opacity: 1; visibility: hidden;" vector-effect="non-scaling-stroke"  x="-540" y="-540" rx="0" ry="0" width="1080" height="1080" />
</g>
<g transform="matrix(1 0 0 1 540 540)"  >
<path style="stroke: rgb(0,0,0); stroke-width: 0; stroke-dasharray: none; stroke-linecap: butt; stroke-dashoffset: 0; stroke-linejoin: miter; stroke-miterlimit: 4; fill: rgb(197,152,86); fill-rule: nonzero; opacity: 1;" vector-effect="non-scaling-stroke"  transform=" translate(-256, -256)" d="M 235.3 331.3 C 229.1 337.6 218.9 337.6 212.7 331.3 L 148.7 267.3 C 142.4 261.1 142.4 250.9 148.7 244.7 C 154.9 238.4 165.1 238.4 171.3 244.7 L 224 297.4 L 340.7 180.7 C 346.9 174.4 357.1 174.4 363.3 180.7 C 369.6 186.9 369.6 197.1 363.3 203.3 L 235.3 331.3 z M 512 256 C 512 397.4 397.4 512 256 512 C 114.6 512 0 397.4 0 256 C 0 114.6 114.6 0 256 0 C 397.4 0 512 114.6 512 256 z M 256 32 C 132.3 32 32 132.3 32 256 C 32 379.7 132.3 480 256 480 C 379.7 480 480 379.7 480 256 C 480 132.3 379.7 32 256 32 z" stroke-linecap="round" />
</g>
<g transform="matrix(0 0 0 0 0 0)"  >
<g style=""   >
</g>
</g>
<g transform="matrix(0 0 0 0 0 0)"  >
<g style=""   >
</g>
</g>
<g transform="matrix(NaN NaN NaN NaN 0 0)"  >
<g style=""   >
</g>
</g>
</svg>