<svg width="12" height="15" viewBox="0 0 12 15" fill="none" xmlns="http://www.w3.org/2000/svg">
<path fill-rule="evenodd" clip-rule="evenodd" d="M5.99992 0.833328C4.25102 0.833328 2.83325 2.25109 2.83325 4C2.83325 5.7489 4.25102 7.16666 5.99992 7.16666C7.74882 7.16666 9.16659 5.7489 9.16659 4C9.16659 2.25109 7.74882 0.833328 5.99992 0.833328ZM3.83325 4C3.83325 2.80338 4.8033 1.83333 5.99992 1.83333C7.19654 1.83333 8.16659 2.80338 8.16659 4C8.16659 5.19661 7.19654 6.16666 5.99992 6.16666C4.8033 6.16666 3.83325 5.19661 3.83325 4Z" fill="#C59856"/>
<path fill-rule="evenodd" clip-rule="evenodd" d="M5.99992 8.16666C4.64036 8.16666 3.38493 8.4805 2.45202 9.01359C1.53325 9.5386 0.833252 10.3401 0.833252 11.3333C0.833252 12.3266 1.53325 13.1281 2.45202 13.6531C3.38493 14.1862 4.64036 14.5 5.99992 14.5C7.35948 14.5 8.61491 14.1862 9.54782 13.6531C10.4666 13.1281 11.1666 12.3266 11.1666 11.3333C11.1666 10.3401 10.4666 9.5386 9.54782 9.01359C8.61491 8.4805 7.35948 8.16666 5.99992 8.16666ZM1.83325 11.3333C1.83325 10.8538 2.17792 10.322 2.94816 9.88183C3.70425 9.44978 4.78215 9.16666 5.99992 9.16666C7.21769 9.16666 8.29559 9.44978 9.05168 9.88183C9.82191 10.322 10.1666 10.8538 10.1666 11.3333C10.1666 11.8128 9.82191 12.3447 9.05168 12.7848C8.29559 13.2169 7.21769 13.5 5.99992 13.5C4.78215 13.5 3.70425 13.2169 2.94816 12.7848C2.17792 12.3447 1.83325 11.8128 1.83325 11.3333Z" fill="#C59856"/>
</svg>
