<svg width="12" height="15" viewBox="0 0 12 15" fill="none" xmlns="http://www.w3.org/2000/svg">
<path fill-rule="evenodd" clip-rule="evenodd" d="M6 0.833344C4.25109 0.833344 2.83333 2.25111 2.83333 4.00001C2.83333 5.74891 4.25109 7.16668 6 7.16668C7.7489 7.16668 9.16666 5.74891 9.16666 4.00001C9.16666 2.25111 7.7489 0.833344 6 0.833344ZM3.83333 4.00001C3.83333 2.80339 4.80338 1.83334 6 1.83334C7.19661 1.83334 8.16666 2.80339 8.16666 4.00001C8.16666 5.19663 7.19661 6.16668 6 6.16668C4.80338 6.16668 3.83333 5.19663 3.83333 4.00001Z" fill="#F2AF27"/>
<path fill-rule="evenodd" clip-rule="evenodd" d="M6 8.16668C4.64044 8.16668 3.38501 8.48051 2.45209 9.0136C1.53333 9.53861 0.833328 10.3401 0.833328 11.3333C0.833328 12.3266 1.53333 13.1281 2.45209 13.6531C3.38501 14.1862 4.64044 14.5 6 14.5C7.35955 14.5 8.61498 14.1862 9.5479 13.6531C10.4667 13.1281 11.1667 12.3266 11.1667 11.3333C11.1667 10.3401 10.4667 9.53861 9.5479 9.0136C8.61498 8.48051 7.35955 8.16668 6 8.16668ZM1.83333 11.3333C1.83333 10.8538 2.178 10.322 2.94823 9.88185C3.70432 9.4498 4.78222 9.16668 6 9.16668C7.21777 9.16668 8.29567 9.4498 9.05176 9.88185C9.82199 10.322 10.1667 10.8538 10.1667 11.3333C10.1667 11.8129 9.82199 12.3447 9.05176 12.7848C8.29567 13.2169 7.21777 13.5 6 13.5C4.78222 13.5 3.70432 13.2169 2.94823 12.7848C2.178 12.3447 1.83333 11.8129 1.83333 11.3333Z" fill="#F2AF27"/>
</svg>
