<svg width="32" height="31" viewBox="0 0 32 31" fill="none" xmlns="http://www.w3.org/2000/svg">
<path d="M17.5423 1.5627C16.8427 0.400222 15.1573 0.400222 14.4577 1.5627L10.4683 8.19173C10.217 8.60935 9.80706 8.90719 9.33221 9.01717L1.79483 10.7628C0.47307 11.069 -0.047726 12.6718 0.84167 13.6964L5.91346 19.539C6.23297 19.9071 6.38956 20.389 6.34742 20.8746L5.67847 28.5825C5.56116 29.9342 6.92463 30.9248 8.17389 30.3956L15.2978 27.3775C15.7466 27.1873 16.2534 27.1873 16.7022 27.3775L23.8261 30.3956C25.0754 30.9248 26.4388 29.9342 26.3215 28.5825L25.6526 20.8746C25.6104 20.389 25.767 19.9071 26.0865 19.539L31.1583 13.6964C32.0477 12.6718 31.5269 11.069 30.2052 10.7628L22.6678 9.01717C22.1929 8.90719 21.783 8.60935 21.5317 8.19173L17.5423 1.5627Z" fill="#AE8549"/>
</svg>
