<svg width="14" height="14" viewBox="0 0 14 14" fill="none" xmlns="http://www.w3.org/2000/svg">
<path d="M7.68545 0.957093C7.37452 0.440437 6.62548 0.440436 6.31455 0.957092L4.54148 3.90333C4.42978 4.08894 4.24758 4.22131 4.03654 4.27019L0.686596 5.04604C0.0991449 5.1821 -0.132322 5.89447 0.262965 6.34984L2.51709 8.94657C2.6591 9.11016 2.72869 9.32435 2.70996 9.54016L2.41265 12.9659C2.36052 13.5666 2.9665 14.0069 3.52173 13.7717L6.68793 12.4303C6.88739 12.3458 7.11261 12.3458 7.31207 12.4303L10.4783 13.7717C11.0335 14.0069 11.6395 13.5666 11.5873 12.9659L11.29 9.54016C11.2713 9.32435 11.3409 9.11016 11.4829 8.94657L13.737 6.34984C14.1323 5.89448 13.9009 5.1821 13.3134 5.04604L9.96346 4.27019C9.75242 4.22131 9.57022 4.08894 9.45852 3.90333L7.68545 0.957093Z" fill="#F2AF27"/>
</svg>
