<svg width="16" height="16" viewBox="0 0 16 16" fill="none" xmlns="http://www.w3.org/2000/svg">
<path d="M1.83334 8.00001C1.83334 4.59425 4.59425 1.83334 8.00001 1.83334C11.4058 1.83334 14.1667 4.59425 14.1667 8.00001C14.1667 9.70303 13.477 11.244 12.3605 12.3605C12.1652 12.5558 12.1652 12.8723 12.3605 13.0676C12.5558 13.2629 12.8723 13.2629 13.0676 13.0676C14.364 11.7712 15.1667 9.97889 15.1667 8.00001C15.1667 4.04197 11.9581 0.833344 8.00001 0.833344C4.04197 0.833344 0.833344 4.04197 0.833344 8.00001C0.833344 9.97889 1.63605 11.7712 2.93241 13.0676C3.12767 13.2629 3.44426 13.2629 3.63952 13.0676C3.83478 12.8723 3.83478 12.5558 3.63952 12.3605C2.52302 11.244 1.83334 9.70303 1.83334 8.00001Z" fill="#3EAF3F"/>
<path d="M4.50001 8.00001C4.50001 6.06701 6.06701 4.50001 8.00001 4.50001C9.93301 4.50001 11.5 6.06701 11.5 8.00001C11.5 8.96665 11.1088 9.84096 10.4749 10.4749C10.2796 10.6701 10.2796 10.9867 10.4749 11.182C10.6701 11.3773 10.9867 11.3773 11.182 11.182C11.9958 10.3682 12.5 9.24251 12.5 8.00001C12.5 5.51473 10.4853 3.50001 8.00001 3.50001C5.51473 3.50001 3.50001 5.51473 3.50001 8.00001C3.50001 9.24251 4.00424 10.3682 4.81803 11.182C5.01329 11.3773 5.32987 11.3773 5.52514 11.182C5.7204 10.9867 5.7204 10.6701 5.52514 10.4749C4.89121 9.84096 4.50001 8.96665 4.50001 8.00001Z" fill="#3EAF3F"/>
<path fill-rule="evenodd" clip-rule="evenodd" d="M6.16668 8.00001C6.16668 6.98749 6.98749 6.16668 8.00001 6.16668C9.01253 6.16668 9.83334 6.98749 9.83334 8.00001C9.83334 9.01253 9.01253 9.83334 8.00001 9.83334C6.98749 9.83334 6.16668 9.01253 6.16668 8.00001ZM8.00001 7.16668C7.53977 7.16668 7.16668 7.53977 7.16668 8.00001C7.16668 8.46025 7.53977 8.83334 8.00001 8.83334C8.46025 8.83334 8.83334 8.46025 8.83334 8.00001C8.83334 7.53977 8.46025 7.16668 8.00001 7.16668Z" fill="#3EAF3F"/>
<path fill-rule="evenodd" clip-rule="evenodd" d="M8.9287 10.4956C8.6769 10.3171 8.4065 10.1843 8.07822 10.1686C8.02612 10.1661 7.97391 10.1661 7.9218 10.1686C7.59352 10.1843 7.32312 10.3171 7.07132 10.4956C6.83665 10.662 6.57745 10.8986 6.27637 11.1735L6.22392 11.2214C5.55399 11.8329 5.01225 12.3274 4.66709 12.7393C4.33574 13.1347 4.03124 13.6309 4.22777 14.1838C4.254 14.2576 4.28643 14.329 4.32459 14.3973C4.5984 14.8874 5.15491 15.0339 5.68972 15.0989C6.24781 15.1667 7.01019 15.1667 7.96243 15.1667H8.03755C8.98979 15.1667 9.75221 15.1667 10.3103 15.0989C10.8451 15.0339 11.4016 14.8874 11.6754 14.3973C11.7136 14.329 11.746 14.2576 11.7723 14.1838C11.9688 13.6309 11.6643 13.1347 11.3329 12.7393C10.9878 12.3274 10.446 11.8329 9.77611 11.2214L9.72364 11.1735C9.42257 10.8986 9.16337 10.662 8.9287 10.4956ZM7.64964 11.3114C7.81634 11.1933 7.90326 11.1706 7.96982 11.1674C7.98993 11.1664 8.01009 11.1664 8.0302 11.1674C8.09676 11.1706 8.18368 11.1933 8.35038 11.3114C8.52855 11.4377 8.74218 11.6315 9.07134 11.932C9.77898 12.578 10.2698 13.0275 10.5665 13.3816C10.7133 13.5568 10.7852 13.6775 10.816 13.7584C10.8403 13.8223 10.8326 13.8421 10.8303 13.848L10.83 13.8489C10.8227 13.8693 10.8136 13.8896 10.8024 13.9095C10.7895 13.9327 10.7106 14.0429 10.1897 14.1062C9.69932 14.1658 8.99833 14.1667 8.00001 14.1667C7.00169 14.1667 6.3007 14.1658 5.81037 14.1062C5.28943 14.0429 5.21053 13.9327 5.19757 13.9095C5.18644 13.8896 5.17728 13.8693 5.17001 13.8489L5.16969 13.848C5.16738 13.8421 5.15968 13.8223 5.18401 13.7584C5.2148 13.6775 5.28672 13.5568 5.43354 13.3816C5.73027 13.0275 6.22104 12.578 6.92868 11.932C7.25784 11.6315 7.47147 11.4377 7.64964 11.3114Z" fill="#3EAF3F"/>
</svg>
