<svg width="16" height="16" viewBox="0 0 16 16" fill="none" xmlns="http://www.w3.org/2000/svg">
<path d="M1.83325 8C1.83325 4.59424 4.59416 1.83333 7.99992 1.83333C11.4057 1.83333 14.1666 4.59424 14.1666 8C14.1666 9.70301 13.4769 11.244 12.3604 12.3605C12.1651 12.5557 12.1651 12.8723 12.3604 13.0676C12.5557 13.2629 12.8723 13.2629 13.0675 13.0676C14.3639 11.7712 15.1666 9.97888 15.1666 8C15.1666 4.04195 11.958 0.833328 7.99992 0.833328C4.04188 0.833328 0.833252 4.04195 0.833252 8C0.833252 9.97888 1.63596 11.7712 2.93232 13.0676C3.12758 13.2629 3.44416 13.2629 3.63943 13.0676C3.83469 12.8723 3.83469 12.5557 3.63943 12.3605C2.52293 11.244 1.83325 9.70301 1.83325 8Z" fill="#C59856"/>
<path d="M4.49992 8C4.49992 6.067 6.06692 4.5 7.99992 4.5C9.93292 4.5 11.4999 6.067 11.4999 8C11.4999 8.96663 11.1087 9.84095 10.4748 10.4749C10.2795 10.6701 10.2795 10.9867 10.4748 11.182C10.6701 11.3772 10.9866 11.3772 11.1819 11.182C11.9957 10.3682 12.4999 9.2425 12.4999 8C12.4999 5.51471 10.4852 3.49999 7.99992 3.49999C5.51464 3.49999 3.49992 5.51471 3.49992 8C3.49992 9.2425 4.00415 10.3682 4.81794 11.182C5.0132 11.3772 5.32978 11.3772 5.52504 11.182C5.72031 10.9867 5.72031 10.6701 5.52504 10.4749C4.89112 9.84095 4.49992 8.96663 4.49992 8Z" fill="#C59856"/>
<path fill-rule="evenodd" clip-rule="evenodd" d="M6.16659 8C6.16659 6.98747 6.9874 6.16666 7.99992 6.16666C9.01244 6.16666 9.83325 6.98747 9.83325 8C9.83325 9.01252 9.01244 9.83333 7.99992 9.83333C6.9874 9.83333 6.16659 9.01252 6.16659 8ZM7.99992 7.16666C7.53968 7.16666 7.16659 7.53976 7.16659 8C7.16659 8.46023 7.53968 8.83333 7.99992 8.83333C8.46016 8.83333 8.83325 8.46023 8.83325 8C8.83325 7.53976 8.46016 7.16666 7.99992 7.16666Z" fill="#C59856"/>
<path fill-rule="evenodd" clip-rule="evenodd" d="M8.92861 10.4956C8.67681 10.3171 8.40641 10.1843 8.07813 10.1685C8.02602 10.166 7.97381 10.166 7.9217 10.1685C7.59343 10.1843 7.32303 10.3171 7.07123 10.4956C6.83655 10.662 6.57736 10.8986 6.27628 11.1735L6.22383 11.2214C5.5539 11.8329 5.01216 12.3274 4.667 12.7393C4.33565 13.1347 4.03115 13.6309 4.22768 14.1838C4.25391 14.2576 4.28633 14.329 4.3245 14.3973C4.59831 14.8873 5.15482 15.0339 5.68963 15.0989C6.24772 15.1667 7.0101 15.1667 7.96234 15.1667H8.03746C8.9897 15.1667 9.75212 15.1667 10.3102 15.0989C10.845 15.0339 11.4015 14.8873 11.6753 14.3973C11.7135 14.329 11.7459 14.2576 11.7722 14.1838C11.9687 13.6309 11.6642 13.1347 11.3328 12.7393C10.9877 12.3274 10.4459 11.8329 9.77602 11.2214L9.72355 11.1735C9.42248 10.8986 9.16328 10.662 8.92861 10.4956ZM7.64954 11.3114C7.81625 11.1933 7.90317 11.1706 7.96973 11.1674C7.98984 11.1664 8.01 11.1664 8.03011 11.1674C8.09667 11.1706 8.18359 11.1933 8.35029 11.3114C8.52846 11.4377 8.74208 11.6315 9.07125 11.932C9.77889 12.578 10.2697 13.0275 10.5664 13.3816C10.7132 13.5568 10.7851 13.6775 10.8159 13.7584C10.8403 13.8222 10.8326 13.8421 10.8302 13.848L10.8299 13.8489C10.8227 13.8693 10.8135 13.8896 10.8024 13.9095C10.7894 13.9327 10.7105 14.0428 10.1896 14.1062C9.69923 14.1658 8.99824 14.1667 7.99992 14.1667C7.00159 14.1667 6.30061 14.1658 5.81028 14.1062C5.28934 14.0428 5.21044 13.9327 5.19748 13.9095C5.18635 13.8896 5.17718 13.8693 5.16992 13.8489L5.1696 13.848C5.16729 13.8421 5.15959 13.8222 5.18391 13.7584C5.21471 13.6775 5.28663 13.5568 5.43345 13.3816C5.73018 13.0275 6.22095 12.578 6.92859 11.932C7.25775 11.6315 7.47138 11.4377 7.64954 11.3114Z" fill="#C59856"/>
</svg>
